<?xml version="1.0" encoding="utf-8"?>
<!-- Generator: Adobe Illustrator 19.0.0, SVG Export Plug-In . SVG Version: 6.00 Build 0)  -->
<svg version="1.1" id="Слой_1" xmlns="http://www.w3.org/2000/svg" xmlns:xlink="http://www.w3.org/1999/xlink" x="0px" y="0px"
	 viewBox="0 0 327.1 65.8" style="enable-background:new 0 0 327.1 65.8;" xml:space="preserve">
<style type="text/css">
	.st0{fill:url(#XMLID_71_);}
	.st1{fill:url(#XMLID_72_);}
	.st2{fill:url(#XMLID_73_);}
	.st3{fill:#FFFFFF;}
</style>
<linearGradient id="XMLID_71_" gradientUnits="userSpaceOnUse" x1="120.944" y1="55.011" x2="4.9818" y2="55.011" gradientTransform="matrix(-0.788 0.6157 -0.6157 -0.788 364.3494 47.1559)">
	<stop  offset="0" style="stop-color:#961914"/>
	<stop  offset="8.602150e-002" style="stop-color:#E52C12"/>
	<stop  offset="0.5699" style="stop-color:#E63216"/>
	<stop  offset="1" style="stop-color:#A71916"/>
</linearGradient>
<path id="XMLID_93_" class="st0" d="M301.8,50c17.6-13.7,26.6-31.5,20.3-39.6c-6.4-8.2-25.8-3.7-43.4,10.1c0,0,0,0,0,0l11.5,14.8
	L301.8,50C301.8,50,301.8,50,301.8,50z"/>
<linearGradient id="XMLID_72_" gradientUnits="userSpaceOnUse" x1="9.0981" y1="7.1173" x2="320.2119" y2="7.1173" gradientTransform="matrix(-0.9781 -0.2079 0.2079 -0.9781 321.6049 73.3095)">
	<stop  offset="0" style="stop-color:#961914"/>
	<stop  offset="8.602150e-002" style="stop-color:#E52C12"/>
	<stop  offset="0.5699" style="stop-color:#E63216"/>
	<stop  offset="1" style="stop-color:#A71916"/>
</linearGradient>
<path id="XMLID_83_" class="st1" d="M0,46.2c13.8,4,47,10,47,10c49.7,8.8,99,5.5,149.1,3.3c34-1.1,66.8-0.5,100.4,5.5l0,0
	c0,0,0,0,0,0c9.3,2,17.6,0.1,18.5-4.2l9.2-43.2c-0.9,4.3-9.2,6.2-18.5,4.2c0,0,0,0,0,0l0,0l0,0c0,0,0,0,0,0
	c-0.3-0.1-0.6-0.1-0.9-0.2l-0.3-0.1l0,0C222,7.5,138.7,27.4,56.2,13c0,0-25.7-4.5-43.5-8.3c7,11.5,17.2,14.6,24.2,27
	C34.6,33,23.1,32.4,0,46.2z"/>
<linearGradient id="XMLID_73_" gradientUnits="userSpaceOnUse" x1="9.0981" y1="7.1173" x2="320.2119" y2="7.1173" gradientTransform="matrix(-0.9781 -0.2079 0.2079 -0.9781 321.6049 73.3095)">
	<stop  offset="0" style="stop-color:#E52F15"/>
	<stop  offset="9.677420e-002" style="stop-color:#CA1917"/>
	<stop  offset="0.5699" style="stop-color:#E63216"/>
	<stop  offset="1" style="stop-color:#A71916"/>
</linearGradient>
<path id="XMLID_81_" class="st2" d="M0,46.2c13.8,4,47,10,47,10c49.7,8.8,99,5.5,149.1,3.3c34-1.1,66.8-0.5,100.4,5.5l0,0
	c0,0,0,0,0,0c9.3,2,17.6,0.1,18.5-4.2l9.2-43.2c-0.9,4.3-9.2,6.2-18.5,4.2c0,0,0,0,0,0l0,0l0,0c0,0,0,0,0,0
	c-0.3-0.1-0.6-0.1-0.9-0.2l-0.3-0.1l0,0C222,7.5,138.7,27.4,56.2,13c0,0-25.7-4.5-43.5-8.3c7,11.5,17.2,14.6,24.2,27
	C34.6,33,23.1,32.4,0,46.2z"/>
<g id="XMLID_1_">
	<path id="XMLID_55_" class="st3" d="M84.9,26.2h4.8l11.2,14.7V26.2h5.2V50h-4.5L90.1,34.9V50h-5.2V26.2z"/>
	<path id="XMLID_57_" class="st3" d="M111.8,26.2h17.9v4.7H117v4.8h11.2v4.7H117v5h12.9V50h-18.1V26.2z"/>
	<path id="XMLID_59_" class="st3" d="M132.7,26.2h5.6l4.9,16.1l5.3-16.2h4.5l5.3,16.2l4.9-16.1h5.5l-8.1,24h-4.6l-5.4-15.6
		l-5.4,15.6h-4.6L132.7,26.2z"/>
	<path id="XMLID_61_" class="st3" d="M182.9,26.2h9.7c1.4,0,2.7,0.2,3.8,0.6c1.1,0.4,2.1,1,2.9,1.7c0.8,0.7,1.4,1.6,1.8,2.6
		c0.4,1,0.6,2.1,0.6,3.3v0.1c0,1.4-0.3,2.6-0.7,3.6c-0.5,1-1.2,1.9-2.1,2.6c-0.9,0.7-1.9,1.2-3.1,1.6c-1.2,0.4-2.4,0.5-3.8,0.5h-4
		V50h-5.2V26.2z M192.3,38.2c1.3,0,2.3-0.3,3.1-1s1.1-1.5,1.1-2.6v-0.1c0-1.2-0.4-2.1-1.1-2.7c-0.8-0.6-1.8-0.9-3.1-0.9h-4v7.3
		H192.3z"/>
	<path id="XMLID_64_" class="st3" d="M205.6,26.2h5.2v19.1h11.9V50h-17.1V26.2z"/>
	<path id="XMLID_66_" class="st3" d="M234.8,26h4.8l10.2,24h-5.5l-2.2-5.3h-10.1L230,50h-5.3L234.8,26z M240.3,40l-3.2-7.7L234,40
		H240.3z"/>
	<path id="XMLID_69_" class="st3" d="M253.5,26.2h4.8l11.2,14.7V26.2h5.2V50h-4.5l-11.5-15.1V50h-5.2V26.2z"/>
</g>
</svg>
