<?xml version="1.0" encoding="utf-8"?>
<!-- Generator: Adobe Illustrator 19.0.0, SVG Export Plug-In . SVG Version: 6.00 Build 0)  -->
<svg version="1.1" id="Layer_2" xmlns="http://www.w3.org/2000/svg" xmlns:xlink="http://www.w3.org/1999/xlink" x="0px" y="0px"
	 viewBox="5 30.5 109 40.5" style="enable-background:new 5 30.5 109 40.5;" xml:space="preserve">
<style type="text/css">
	.st0{fill:#FFFFFF;}
	.st1{fill:#F48120;}
	.st2{fill:#FAAD3F;}
</style>
<path class="st0" d="M103.6,44.7L98,43.4L97,43l-25.7,0.2v12.4l32.3,0.1L103.6,44.7z"/>
<path class="st1" d="M93.1,54.5c0.3-1,0.2-2-0.3-2.6c-0.5-0.6-1.2-1-2.1-1.1l-17.4-0.2c-0.1,0-0.2-0.1-0.3-0.1
	c-0.1-0.1-0.1-0.2,0-0.3c0.1-0.2,0.2-0.3,0.4-0.3l17.5-0.2c2.1-0.1,4.3-1.8,5.1-3.8l1-2.6c0-0.1,0.1-0.2,0-0.3
	c-1.1-5.1-5.7-8.9-11.1-8.9c-5,0-9.3,3.2-10.8,7.7c-1-0.7-2.2-1.1-3.6-1c-2.4,0.2-4.3,2.2-4.6,4.6c-0.1,0.6,0,1.2,0.1,1.8
	c-3.9,0.1-7.1,3.3-7.1,7.3c0,0.4,0,0.7,0.1,1.1c0,0.2,0.2,0.3,0.3,0.3h32.1c0.2,0,0.4-0.1,0.4-0.3L93.1,54.5z"/>
<path class="st2" d="M98.6,43.3h-0.5c-0.1,0-0.2,0.1-0.3,0.2l-0.7,2.4c-0.3,1-0.2,2,0.3,2.6s1.2,1,2.1,1.1l3.7,0.2
	c0.1,0,0.2,0.1,0.3,0.1c0.1,0.1,0.1,0.2,0,0.3c-0.1,0.2-0.2,0.3-0.4,0.3l-3.8,0.2c-2.1,0.1-4.3,1.8-5.1,3.8L94,55.4
	c-0.1,0.1,0,0.3,0.2,0.3h13.2c0.2,0,0.3-0.1,0.3-0.3c0.2-0.8,0.4-1.7,0.4-2.6C108.1,47.6,103.8,43.3,98.6,43.3"/>
<path class="st1" d="M109.4,61.3c-0.5,0-0.9-0.4-0.9-0.9s0.4-0.9,0.9-0.9s0.9,0.4,0.9,0.9S109.9,61.3,109.4,61.3 M109.4,59.7
	c-0.4,0-0.7,0.3-0.7,0.7c0,0.4,0.3,0.7,0.7,0.7c0.4,0,0.7-0.3,0.7-0.7S109.8,59.7,109.4,59.7 M109.8,60.9h-0.2l-0.2-0.3h-0.2v0.3
	H109V60h0.5c0.2,0,0.3,0.1,0.3,0.3c0,0.1-0.1,0.2-0.2,0.3L109.8,60.9L109.8,60.9z M109.5,60.4c0.1,0,0.1,0,0.1-0.1s-0.1-0.1-0.1-0.1
	h-0.3v0.3L109.5,60.4L109.5,60.4z M19.8,59.5H22v6h3.8v1.9h-6V59.5z M28.1,63.4c0-2.3,1.8-4.1,4.3-4.1s4.2,1.8,4.2,4.1
	s-1.8,4.1-4.3,4.1C29.9,67.5,28.1,65.7,28.1,63.4 M34.4,63.4c0-1.2-0.8-2.2-2-2.2s-2,1-2,2.1c0,1.1,0.8,2.1,2,2.1
	C33.6,65.6,34.4,64.6,34.4,63.4 M39.3,63.9v-4.4h2.2v4.4c0,1.1,0.6,1.7,1.5,1.7s1.5-0.5,1.5-1.6v-4.5h2.2v4.4c0,2.6-1.5,3.7-3.7,3.7
	C40.7,67.5,39.3,66.4,39.3,63.9 M50,59.5h3.1c2.8,0,4.5,1.6,4.5,3.9s-1.7,4-4.5,4h-3L50,59.5L50,59.5z M53.1,65.4
	c1.3,0,2.2-0.7,2.2-2c0-1.3-0.9-2-2.2-2h-0.9v4H53.1z M60.7,59.5H67v1.9h-4.1v1.3h3.7v1.8h-3.7v2.9h-2.2L60.7,59.5z M70.1,59.5h2.2
	v6h3.8v1.9h-6V59.5z M81.8,59.4H84l3.4,8H85L84.4,66h-3.1l-0.6,1.4h-2.3C78.4,67.4,81.8,59.4,81.8,59.4z M83.8,64.3l-0.9-2.2
	L82,64.3H83.8z M90.2,59.5h3.7c1.2,0,2,0.3,2.6,0.9c0.5,0.5,0.7,1.1,0.7,1.8c0,1.2-0.6,2-1.6,2.4l1.9,2.8H95L93.4,65h-1v2.4h-2.2
	C90.2,67.4,90.2,59.5,90.2,59.5z M93.8,63.3c0.7,0,1.2-0.4,1.2-0.9c0-0.6-0.5-0.9-1.2-0.9h-1.4v1.9h1.4V63.3z M100.3,59.5h6.4v1.8
	h-4.2v1.2h3.8v1.8h-3.8v1.2h4.3v1.9h-6.5L100.3,59.5z M15,64.4c-0.3,0.7-1,1.2-1.8,1.2c-1.2,0-2-1-2-2.1c0-1.1,0.8-2.1,2-2.1
	c0.9,0,1.6,0.6,1.9,1.3h2.3c-0.4-1.9-2-3.3-4.2-3.3c-2.4,0-4.3,1.8-4.3,4.1s1.8,4.1,4.2,4.1c2.1,0,3.7-1.4,4.2-3.2H15z"/>
</svg>
