<?xml version="1.0" encoding="iso-8859-1"?>
<!-- Generator: Adobe Illustrator 19.0.0, SVG Export Plug-In . SVG Version: 6.00 Build 0)  -->
<svg version="1.1" id="Layer_1" xmlns="http://www.w3.org/2000/svg" xmlns:xlink="http://www.w3.org/1999/xlink" x="0px" y="0px"
	 viewBox="0 0 92.418 92.398" style="enable-background:new 0 0 92.418 92.398;" xml:space="preserve">
<g>
	<g>
		<path style="fill-rule:evenodd;clip-rule:evenodd;fill:#FCEE36;" d="M46.187,0c25.528,0,46.23,20.701,46.23,46.229
			c0,25.529-20.702,46.234-46.23,46.234c-25.528,0-46.24-20.705-46.24-46.234C-0.053,20.701,20.659,0,46.187,0L46.187,0z"/>
		<path style="fill-rule:evenodd;clip-rule:evenodd;" d="M11.592,15.57c22.331-1.894,46.838-1.965,69.189,0
			C72.314,6.019,59.947,0,46.187,0C32.417,0,20.061,6.019,11.592,15.57L11.592,15.57z"/>
		<path style="fill-rule:evenodd;clip-rule:evenodd;" d="M81.236,76.367c-21.692,1.683-47.477,1.802-70.108,0
			c8.479,9.857,21.042,16.097,35.059,16.097C60.205,92.464,72.757,86.225,81.236,76.367L81.236,76.367z"/>
		<path style="fill-rule:evenodd;clip-rule:evenodd;" d="M1.464,34.481c30.077-0.531,59.401-0.619,89.447,0
			c0.979,3.754,1.507,7.689,1.507,11.748c0,3.522-0.394,6.952-1.136,10.247c-30.427,0.882-60.401,0.656-90.189,0
			c-0.742-3.295-1.145-6.725-1.145-10.247C-0.053,42.17,0.474,38.235,1.464,34.481L1.464,34.481z"/>
		<g style="display:none;">
			<defs>
				<path id="SVGID_1_" d="M46.187,0c25.528,0,46.23,20.701,46.23,46.229c0,25.529-20.702,46.234-46.23,46.234
					c-25.528,0-46.24-20.705-46.24-46.234C-0.053,20.701,20.659,0,46.187,0L46.187,0z"/>
			</defs>
			<clipPath id="SVGID_2_" style="display:inline;">
				<use xlink:href="#SVGID_1_"  style="overflow:visible;"/>
			</clipPath>
			<radialGradient id="SVGID_3_" cx="68.2084" cy="21.2889" r="45.8582" gradientUnits="userSpaceOnUse">
				<stop  offset="0" style="stop-color:#FFFFFF;stop-opacity:0.7"/>
				<stop  offset="1" style="stop-color:#FFFFFF;stop-opacity:0"/>
			</radialGradient>
			<path style="display:inline;clip-path:url(#SVGID_2_);fill-rule:evenodd;clip-rule:evenodd;fill:url(#SVGID_3_);" d="
				M114.129,21.289c0,25.296-20.566,45.796-45.919,45.796c-25.364,0-45.921-20.5-45.921-45.796
				c0-25.291,20.557-45.796,45.921-45.796C93.562-24.507,114.129-4.002,114.129,21.289z"/>
		</g>
		<radialGradient id="SVGID_4_" cx="46.1823" cy="46.2319" r="46.2337" gradientUnits="userSpaceOnUse">
			<stop  offset="0.9" style="stop-color:#FFFFFF;stop-opacity:0"/>
			<stop  offset="1" style="stop-color:#FFFFFF;stop-opacity:0.3"/>
		</radialGradient>
		<path style="display:none;fill-rule:evenodd;clip-rule:evenodd;fill:url(#SVGID_4_);" d="M46.187,0
			c25.528,0,46.23,20.701,46.23,46.229c0,25.529-20.702,46.234-46.23,46.234c-25.527,0-46.24-20.705-46.24-46.234
			C-0.053,20.701,20.66,0,46.187,0L46.187,0z"/>
	</g>
</g>
<g>
</g>
<g>
</g>
<g>
</g>
<g>
</g>
<g>
</g>
<g>
</g>
</svg>
