<?xml version="1.0" encoding="iso-8859-1"?>
<!-- Generator: Adobe Illustrator 19.0.0, SVG Export Plug-In . SVG Version: 6.00 Build 0)  -->
<svg version="1.1" id="Layer_1" xmlns="http://www.w3.org/2000/svg" xmlns:xlink="http://www.w3.org/1999/xlink" x="0px" y="0px"
	 viewBox="0 0 290 247.12" style="enable-background:new 0 0 290 247.12;" xml:space="preserve">
<g>
	<path style="fill:#13110C;" d="M40.775,247.12h-9.019l-5.314-19.615c-0.622-2.364-0.966-5.169-0.966-5.169h-0.105
		c0,0-0.372,2.805-1.065,5.169l-5.262,19.615h-9.007L0,212.684h8.749l4.919,21.094c0.559,2.559,0.912,5.603,0.912,5.603h0.094
		c0,0,0.532-3.044,1.194-5.603l5.532-21.094h7.986l5.552,21.094c0.637,2.559,1.186,5.603,1.186,5.603h0.105
		c0,0,0.321-3.044,0.869-5.603l4.946-21.094h8.753L40.775,247.12z"/>
	<path style="fill:#13110C;" d="M68.024,247.879c-10.353,0-15.526-4.085-15.526-11.112c0-9.39,9.758-11.238,20.217-11.813v-1.788
		c0-3.584-2.497-4.922-6.472-4.922c-3.247,0-7.184,1.025-9.637,2.046l-2.187-5.881c2.891-1.217,7.802-2.5,12.783-2.5
		c8.843,0,13.722,3.459,13.722,12.279v21.199C78.385,246.733,73.185,247.879,68.024,247.879z M72.715,230.498
		c-6.429,0.333-12.036,0.908-12.036,6.085c0,3.244,2.586,5.095,7.086,5.095c1.851,0,4.038-0.313,4.95-0.685V230.498z"/>
	<path style="fill:#13110C;" d="M87.509,247.12v-50.15h8.679v50.15H87.509z"/>
	<path style="fill:#13110C;" d="M103.47,247.12v-50.15h8.706v50.15H103.47z"/>
	<path style="fill:#13110C;" d="M148.248,230.498l-22.17,3.013c0.783,5.04,4.488,7.552,9.54,7.552c3.455,0,7.145-0.908,9.574-2.18
		l2.501,6.503c-2.872,1.459-7.712,2.492-12.709,2.492c-11.367,0-17.389-7.403-17.389-18.014c0-10.545,5.948-17.956,15.984-17.956
		c9.5,0,14.822,6.268,14.822,15.663C148.4,228.53,148.4,229.489,148.248,230.498z M133.371,218.244c-4.543,0-7.72,3.322-7.853,9.766
		l14.462-1.98C139.98,220.853,137.382,218.244,133.371,218.244z"/>
	<path style="fill:#13110C;" d="M165.256,247.621c-6.636,0-9.77-3.635-9.77-10.854v-17.565h-4.398v-6.518h4.398v-7.662l8.514-2.488
		v10.15h6.487v6.518h-6.487v16.989c0,2.813,1.745,3.772,3.999,3.772c0.904,0,1.914-0.254,2.489-0.505v7.215
		C169.451,247.167,167.362,247.621,165.256,247.621z"/>
	<path style="fill:#B8182C;" d="M204.353,247.879c-10.036,0-15.596-7.724-15.596-18.014c0-10.283,5.56-17.956,15.596-17.956
		c10.032,0,15.577,7.673,15.577,17.956C219.93,240.155,214.386,247.879,204.353,247.879z M204.353,218.756
		c-4.606,0-6.902,4.159-6.902,11.038c0,6.914,2.297,10.995,6.902,10.995c4.617,0,6.914-4.081,6.914-10.995
		C211.267,222.916,208.97,218.756,204.353,218.756z"/>
	<path style="fill:#B8182C;" d="M245.172,247.12v-22.679c0-3.459-2.105-5.564-6.073-5.564c-2.027,0-4.042,0.391-5.192,0.837v27.405
		h-8.674v-32.711c3.647-1.471,8.049-2.5,13.73-2.5c10.232,0,14.955,4.23,14.955,11.625v23.586H245.172z"/>
	<path style="fill:#B8182C;" d="M289.855,230.498l-22.158,3.013c0.786,5.04,4.465,7.552,9.52,7.552c3.467,0,7.149-0.908,9.575-2.18
		l2.516,6.503c-2.872,1.459-7.732,2.492-12.713,2.492c-11.355,0-17.373-7.403-17.373-18.014c0-10.545,5.94-17.956,15.964-17.956
		c9.52,0,14.814,6.268,14.814,15.663C290,228.53,290,229.489,289.855,230.498z M275.003,218.244c-4.535,0-7.74,3.322-7.873,9.766
		l14.446-1.98C281.576,220.853,279.009,218.244,275.003,218.244z"/>
	<path style="fill:#13110C;" d="M232.842,56.712c-8.62-8.635-23.242-8.123-32.48,1.107L166.81,91.364V23.754
		C166.81,10.69,156.836,0,144.621,0c-5.208,0-9.95,2.035-13.754,5.282c-1.35,0.904-2.614,1.925-3.799,3.114L43.964,91.528V23.754
		C43.964,10.69,33.963,0,21.763,0C9.528,0-0.434,10.69-0.434,23.754v118.773c0,4.961,1.452,9.567,3.933,13.397
		c0.857,1.522,1.874,2.962,3.161,4.261c2.727,2.708,6.053,4.41,9.582,5.345l0.079,0.024c7.712,1.972,16.524-0.161,22.808-6.472
		l83.307-83.272v66.717c0,3.541,0.771,6.879,2.074,9.899c1.037,2.841,2.653,5.521,4.883,7.759c8.616,8.64,23.254,8.131,32.48-1.103
		L231.758,89.2C240.997,79.978,241.482,65.367,232.842,56.712z"/>
	<path style="fill:#B8182C;" d="M287.766,23.77c0.282-5.982-1.745-11.922-6.127-16.316c-4.574-4.586-10.85-6.57-17.107-6.069
		c-2.661,0.137-5.208,0.791-7.536,1.855c-2.864,1.209-5.521,2.985-7.853,5.318L204.314,53.41c-9.261,9.261-9.759,23.868-1.15,32.492
		c8.647,8.636,23.246,8.127,32.492-1.099l7.763-7.763v66.838c0,13.069,10.001,23.758,22.185,23.758
		c12.196,0,22.162-10.69,22.162-23.758V25.124C287.766,24.662,287.766,24.208,287.766,23.77z"/>
</g>
<g>
</g>
<g>
</g>
<g>
</g>
<g>
</g>
<g>
</g>
<g>
</g>
</svg>
