<?xml version="1.0" encoding="iso-8859-1"?>
<!-- Generator: Adobe Illustrator 19.0.0, SVG Export Plug-In . SVG Version: 6.00 Build 0)  -->
<svg version="1.1" id="Layer_1" xmlns="http://www.w3.org/2000/svg" xmlns:xlink="http://www.w3.org/1999/xlink" x="0px" y="0px"
	 viewBox="0 0 388.882 90.786" style="enable-background:new 0 0 388.882 90.786;" xml:space="preserve">
<g>
	<g>
		<rect x="-35.164" y="-20.646" style="fill:#FFFFFF;" width="459.213" height="146.914"/>
		<g>
			<g>
				<path style="fill:#878787;" d="M138.722,30.838h-9.26c-4.129,0-5.571-2.118-5.571-4.122c0-2.003,1.442-4.068,5.571-4.068h9.26
					V30.838L138.722,30.838z M68.77,29.345v-6.697h9.51c2.182,0,4.686,0.622,4.686,3.247c0,2.638-2.504,3.45-4.686,3.45H68.77
					L68.77,29.345z M68.77,42.292v-7.07h9.883c3.38,0,5.318,0.943,5.318,3.567c0,2.622-1.938,3.503-5.318,3.503H68.77L68.77,42.292z
					 M169.63,35.849h12.644c3.879,0,5.004,1.246,5.004,2.813c0,2.511-2.75,3.63-7.389,3.63c-5.313,0-12.443-1.378-17.583-2.75
					l-1.495,8.691c5.878,1.751,12.888,3.508,22.647,3.508c12.52,0,25.659-3.001,25.659-11.143c0-5.556-6.193-8.005-11.513-8.377
					v-0.248c4.255-0.819,8.566-3.757,8.566-8.138c0-7.442-10.449-10.266-21.4-10.266c-7.945,0-16.585,1.696-22.398,3.257
					l1.193,8.384c5.189-1.311,11.754-2.624,16.646-2.624c4.316,0,6.563,0.813,6.563,3.177c0,1.518-0.872,2.769-4.314,2.769h-12.83
					V35.849L169.63,35.849z M298.154,42.351c-4.499,0-10.766-2.437-10.766-9.567c0-7.572,6.196-9.758,10.766-9.758
					c4.571,0,10.753,2.186,10.753,9.758C308.907,39.914,302.657,42.351,298.154,42.351 M45.608,27.152V16.827
					c-5.059-2.121-10.885-3.449-17.764-3.449C14.453,13.378,0,18.46,0,32.845C0,46.73,14.397,51.99,28.094,51.99
					c6.504,0,12.828-1.183,17.515-3.184V38.475c-3.935,1.621-7.817,2.5-11.949,2.5c-5.875,0-12.326-1.936-12.326-8.13
					c0-6.001,5.574-8.318,11.577-8.318C36.79,24.526,41.486,25.586,45.608,27.152 M211.679,50.113h19.837V37.095h13.513v13.019
					h19.901V15.267h-19.901v12.077h-13.513V15.267h-19.837V50.113L211.679,50.113z M348.774,50.113l20.648-17.455v17.455h19.46
					V15.267h-17.274l-20.652,17.456V15.267h-19.452v34.847H348.774L348.774,50.113z M124.397,50.113l7.125-11.693h7.201v11.693
					h19.085V15.267c-8.13-0.877-19.711-1.192-23.339-1.192c-15.399,0-29.91,1.003-29.91,12.769c0,5.06,4.442,8.066,9.447,9.321
					l-10.38,13.948H124.397L124.397,50.113z M49.684,50.113c9.256,0.813,17.078,1.247,25.649,1.247
					c12.516,0,28.728-0.681,28.728-10.446c0-5.692-6.389-8.692-11.893-8.692V31.84c5.256-0.621,9.515-4.188,9.515-8.381
					c0-8.696-13.835-9.385-26.847-9.385c-8.639,0-15.583,0.315-25.153,1.192V50.113L49.684,50.113z M298.154,13.378
					c-13.648,0-31.223,4.893-31.223,19.467c0,14.264,17.773,19.146,31.223,19.146c13.459,0,31.222-4.882,31.222-19.146
					C329.375,18.271,311.8,13.378,298.154,13.378"/>
				<polygon style="fill:#F9B45C;" points="368.798,12.197 354.528,0 354.528,24.401 368.798,12.197 				"/>
			</g>
		</g>
	</g>
	<g>
		<rect x="2.048" y="66.383" style="fill:#A6C7EA;" width="77.367" height="24.403"/>
		<rect x="79.414" y="66.383" style="fill:#F9B45C;" width="77.367" height="24.403"/>
		<rect x="156.781" y="66.383" style="fill:#C0D886;" width="77.367" height="24.403"/>
		<rect x="234.148" y="66.383" style="fill:#FFE066;" width="77.367" height="24.403"/>
		<rect x="311.514" y="66.383" style="fill:#BC9ECA;" width="77.367" height="24.403"/>
	</g>
</g>
</svg>
