<?xml version="1.0" encoding="iso-8859-1"?>
<!-- Generator: Adobe Illustrator 19.0.0, SVG Export Plug-In . SVG Version: 6.00 Build 0)  -->
<svg version="1.1" id="Layer_1" xmlns="http://www.w3.org/2000/svg" xmlns:xlink="http://www.w3.org/1999/xlink" x="0px" y="0px"
	 viewBox="0 0 283.466 152.457" style="enable-background:new 0 0 283.466 152.457;" xml:space="preserve">
<rect x="-70.866" y="-65.504" style="display:none;fill:#FFD300;" width="425.197" height="283.465"/>
<g>
	<path style="fill:#004379;" d="M259.664,109.499c-0.968,0-1.905,0.351-2.638,0.983c-23.711,20.532-68.072,34.351-118.901,34.351
		c-57.441,0-106.636-17.649-127.081-42.693c-0.289-0.351-0.068-0.894,0.387-0.894c0.671,0,1.327,0.253,1.783,0.743
		c19.42,20.804,61.633,35.222,110.581,35.222c38.962,0,73.651-9.136,95.979-23.355c2.006-1.279,1-4.356-1.38-4.356h-6.792
		c-0.98,0-1.941,0.295-2.756,0.841c-20.843,13.995-54.182,23.061-91.761,23.061c-63.148,0-113.732-25.599-113.732-57.172
		c0-31.575,50.584-57.172,113.732-57.172c37.579,0,70.918,9.066,91.761,23.061c0.814,0.546,1.775,0.841,2.756,0.841h6.792
		c2.38,0,3.386-3.078,1.38-4.354c-22.328-14.22-57.018-23.357-95.979-23.357c-49.038,0-91.312,14.471-110.684,35.338
		c-0.453,0.488-1.108,0.743-1.774,0.743c-0.456,0-0.673-0.544-0.386-0.896C31.341,25.325,80.598,7.624,138.125,7.624
		c50.829,0,95.19,13.82,118.901,34.353c0.732,0.633,1.67,0.981,2.638,0.981h17.798c4.349,0,6.569-5.387,3.13-8.049
		C253.442,13.904,206.199,0,152.457,0C68.257,0,0,34.128,0,76.229s68.257,76.229,152.457,76.229
		c53.742,0,100.985-13.904,128.135-34.909c3.439-2.662,1.219-8.049-3.13-8.049H259.664z"/>
	<g>
		<polygon style="fill:#004379;" points="48.819,101.801 48.819,87.028 46.055,87.028 41.562,94.014 37.065,87.028 34.303,87.028 
			34.303,101.801 36.856,101.801 36.856,91.249 41.479,98.172 41.562,98.172 46.228,91.203 46.228,101.801 		"/>
		<path style="fill:#004379;" d="M61.455,86.773c-4.538,0-7.746,3.482-7.746,7.639c0,4.198,3.166,7.64,7.702,7.64
			c4.539,0,7.742-3.483,7.742-7.64C69.153,90.217,65.986,86.773,61.455,86.773z M61.455,99.668c-2.935,0-5.023-2.385-5.023-5.256
			c0-2.912,2.048-5.251,4.979-5.251c2.935,0,5.021,2.383,5.021,5.251C66.433,97.323,64.389,99.668,61.455,99.668z"/>
		<polygon style="fill:#004379;" points="76.449,87.028 74.046,87.028 74.046,101.801 76.599,101.801 76.599,91.291 84.744,101.801 
			86.914,101.801 86.914,87.028 84.362,87.028 84.362,97.243 		"/>
		<polygon style="fill:#004379;" points="104.356,99.476 95.896,99.476 95.896,95.508 103.303,95.508 103.303,93.192 95.896,93.192 
			95.896,89.348 104.25,89.348 104.25,87.028 93.3,87.028 93.3,101.801 104.356,101.801 		"/>
		<polygon style="fill:#004379;" points="116.988,101.801 116.988,95.911 122.855,87.028 119.878,87.028 115.701,93.568 
			111.567,87.028 108.505,87.028 114.37,95.976 114.37,101.801 		"/>
		<polygon style="fill:#004379;" points="140.487,101.801 140.487,89.435 145.177,89.435 145.177,87.028 133.189,87.028 
			133.189,89.435 137.874,89.435 137.874,101.801 		"/>
		<path style="fill:#004379;" d="M159.051,96.207c2.063-0.595,3.521-2.047,3.521-4.474c0-2.852-2.026-4.705-5.487-4.705h-6.58
			v14.772h2.594v-5.15h3.203l3.674,5.15h3.063L159.051,96.207z M153.099,94.354v-4.962h3.775c1.924,0,3.063,0.864,3.063,2.45
			c0,1.538-1.186,2.512-3.036,2.512H153.099z"/>
		<path style="fill:#004379;" d="M175.985,86.922h-2.406l-6.499,14.879h2.66l1.519-3.57h6.984l1.498,3.57h2.741L175.985,86.922z
			 M172.21,95.93l2.532-5.905l2.55,5.905H172.21z"/>
		<polygon style="fill:#004379;" points="190.01,87.028 187.604,87.028 187.604,101.801 190.16,101.801 190.16,91.291 
			198.306,101.801 200.475,101.801 200.475,87.028 197.921,87.028 197.921,97.243 		"/>
		<path style="fill:#004379;" d="M212.097,99.708c-1.836,0-3.252-0.694-4.665-1.919l-1.56,1.857
			c1.772,1.582,3.902,2.363,6.162,2.363c3.1,0,5.274-1.648,5.274-4.407c0-2.492-1.624-3.612-4.745-4.369
			c-2.828-0.677-3.504-1.188-3.504-2.323c0-1.012,0.887-1.793,2.404-1.793c1.352,0,2.68,0.527,4.008,1.518l1.393-1.964
			c-1.5-1.2-3.206-1.854-5.358-1.854c-2.932,0-5.044,1.752-5.044,4.282c0,2.765,1.771,3.694,4.918,4.432
			c2.74,0.654,3.334,1.225,3.334,2.28C214.714,98.97,213.702,99.708,212.097,99.708z"/>
		<path style="fill:#004379;" d="M278.251,99.708c-1.836,0-3.249-0.694-4.662-1.919l-1.559,1.857
			c1.772,1.582,3.899,2.363,6.16,2.363c3.102,0,5.275-1.648,5.275-4.407c0-2.492-1.625-3.612-4.745-4.369
			c-2.831-0.677-3.506-1.188-3.506-2.323c0-1.012,0.888-1.793,2.405-1.793c1.354,0,2.679,0.527,4.008,1.518l1.393-1.964
			c-1.5-1.2-3.206-1.854-5.358-1.854c-2.934,0-5.045,1.752-5.045,4.282c0,2.765,1.773,3.694,4.916,4.432
			c2.742,0.654,3.337,1.225,3.337,2.28C280.871,98.97,279.858,99.708,278.251,99.708z"/>
		<polygon style="fill:#004379;" points="233.948,89.392 233.948,87.028 222.954,87.028 222.954,101.801 225.551,101.801 
			225.551,95.785 232.995,95.785 232.995,93.426 225.551,93.426 225.551,89.392 		"/>
		<polygon style="fill:#004379;" points="249.91,89.348 249.91,87.028 238.961,87.028 238.961,101.801 250.015,101.801 
			250.015,99.476 241.556,99.476 241.556,95.508 248.962,95.508 248.962,93.192 241.556,93.192 241.556,89.348 		"/>
		<path style="fill:#004379;" d="M264.232,96.207c2.066-0.595,3.522-2.047,3.522-4.474c0-2.852-2.026-4.705-5.487-4.705h-6.58
			v14.772h2.598v-5.15h3.199l3.674,5.15h3.063L264.232,96.207z M258.284,94.354v-4.962h3.775c1.92,0,3.059,0.864,3.059,2.45
			c0,1.538-1.184,2.512-3.039,2.512H258.284z"/>
	</g>
	<g>
		<path style="fill:#004379;" d="M192.366,79.851l21.699,0.012c-0.122-1.71-1.558-4.678-4.691-4.678h-9.629
			c-0.67-0.061-1.15-0.561-1.18-1.165l-0.002-4.856c0.031-0.645,0.512-1.139,1.116-1.195l12.53-0.002v-4.67h-12.441
			c-0.646-0.01-1.172-0.522-1.203-1.164l-0.002-4.854c0.031-0.646,0.498-1.133,1.104-1.198l9.604-0.004
			c3.131,0,4.564-2.96,4.689-4.673h-21.594V79.851z"/>
		<path style="fill:#004379;" d="M56.284,51.223h-0.955c-3.456,0-5.219,1.983-5.239,5.896l-0.067,15.211
			c-0.29,1.781-1.651,2.857-3.697,2.857h-4.094c-2.265,0-3.702-1.335-3.749-3.487l0.009-14.622
			c-0.019-3.911-1.783-5.893-5.249-5.893h-0.958v19.659c0,4.967,4.046,9.007,9.018,9.007h5.968c4.971,0,9.015-4.04,9.015-9.007
			V51.223z"/>
		<path style="fill:#004379;" d="M176.02,70.116l4.317,7.871c0.936,1.434,2.044,2.072,3.681,2.088h3.951l-5.096-9.621
			c-0.241-0.482-0.555-0.878-0.943-1.192l-0.816-0.663l0.898-0.544c2.723-1.65,4.347-4.53,4.347-7.698v-2.518
			c0-3.536-2.871-6.419-6.405-6.428l-17.619-0.008v28.453h6.195v-9.264c0.033-0.663,0.533-1.163,1.164-1.203h5.141
			C175.337,69.39,175.792,69.669,176.02,70.116z M169.738,64.699c-0.675-0.018-1.208-0.568-1.208-1.223v-6.185
			c0-0.645,0.514-1.178,1.168-1.216h0.04l7.398,0.036c2.134,0.187,3.019,1.261,3.019,3.564v1.422c0,2.221-1.441,3.6-3.759,3.6
			L169.738,64.699z"/>
		<path style="fill:#004379;" d="M238.145,52.23c-0.104-0.528-0.465-0.821-0.887-0.827l-10.951,0.008
			c-0.422,0-0.779,0.304-0.867,0.737l-7.18,27.813h0.726c3.51,0,5.822-2.016,6.863-5.991l0.176-0.685
			c0.145-0.522,0.615-0.882,1.141-0.882h8.859c1.349,0,1.643,1.325,1.643,1.325l0.235,0.938c0.907,3.661,1.192,4.793,1.277,5.185
			h6.127L238.145,52.23z M234.89,67.745h-6.205c-0.662,0-1.196-0.536-1.196-1.196l0.028-0.237c0,0,1.867-9.083,2.116-9.533
			c0.349-0.628,0.871-0.709,1.181-0.709h1.943c0.309,0,0.831,0.081,1.181,0.709c0.253,0.45,2.116,9.533,2.116,9.533l0.032,0.237
			C236.086,67.209,235.548,67.745,234.89,67.745z"/>
		<path style="fill:#004379;" d="M94.225,79.851h6.2V51.185h-0.962c-3.459,0-5.222,1.983-5.242,5.899L94.225,79.851z"/>
		<path style="fill:#004379;" d="M88.247,79.851V51.185h-0.951c-3.445,0-5.202,1.974-5.223,5.869v4.943l0.352,6.326
			c-0.024,0.735-0.564,1.257-1.229,1.257c-0.249,0-0.486-0.074-0.685-0.21h-0.106l-0.227-0.33L68.576,51.596
			c-0.05-0.058-0.094-0.12-0.128-0.185h-6.355v28.494h0.96c3.462,0,5.228-1.966,5.253-5.839v-4.572l-0.285-6.481l0.048-0.137
			c0.231-0.65,0.894-0.947,1.478-0.747l0.201-0.132l0.422,0.603l11.706,17.251H88.247z"/>
		<path style="fill:#004379;" d="M136.733,51.403c-3.076,0-4.494,2.905-4.622,4.596h8.832c0.695,0.053,1.177,0.547,1.205,1.177
			l0.006,22.675h6.103V57.185c0.064-0.666,0.539-1.134,1.134-1.182l4.489-0.005c3.08,0,4.5-2.905,4.627-4.596H136.733z"/>
		<path style="fill:#004379;" d="M129.695,69.719c0-3.542-2.889-6.423-6.438-6.423h-10.154c-0.658,0-1.2-0.542-1.213-1.207v-2.493
			c0.038-2.175,1.408-3.488,3.665-3.52h8.229c3.124,0,4.558-2.952,4.687-4.665h-13.773c-4.848,0-8.812,3.839-9.01,8.634l0.006,1.484
			c0,3.55,2.888,6.437,6.436,6.437h10.147c0.697,0.032,1.213,0.576,1.213,1.237l-0.062,3.116c-0.289,1.785-1.65,2.865-3.698,2.865
			l-9.415,0.01c-3.122,0.116-4.284,3.095-4.393,4.662l14.758-0.006c4.883,0,8.872-3.899,9.013-8.742L129.695,69.719z"/>
		<path style="fill:#004379;" d="M70.044,62.573c-0.632-0.779-1.596-0.49-1.692,0.209v6.598v4.736
			c-0.02,3.815-1.687,5.748-5.104,5.748H62.31V51.485h6.263c0.036,0.064,11.724,17.228,11.724,17.228
			c0.633,0.779,1.597,0.49,1.693-0.209v-6.598v-4.987c0.02-3.814,1.687-5.748,5.104-5.748h0.937v28.433h-6.262
			C81.732,79.539,70.044,62.573,70.044,62.573z"/>
		<path style="fill:#004379;" d="M275.542,51.476c-1.063,0-1.765,0-2.18,0.118c-0.494,0.141-0.685,0.519-1.416,2.361
			c0,0-4.748,13.389-5.461,14.691c-0.246,0.45-0.583,0.627-0.908,0.629c-0.325-0.002-0.662-0.179-0.907-0.629
			c-0.713-1.303-5.462-14.691-5.462-14.691c-0.73-1.843-0.922-2.221-1.415-2.361c-0.416-0.118-1.118-0.118-2.181-0.118h-5.871
			l0.006,28.411h0.941c3.408,0,5.125-1.955,5.143-5.818v-4.926l-0.02-5.903c0-0.835,0.514-1.01,0.887-1.01
			c0.512,0,0.962,0.327,1.117,0.815l5.021,12.836h2.74h2.74l5.022-12.836c0.155-0.488,0.605-0.815,1.117-0.815
			c0.373,0,0.887,0.175,0.887,1.01l-0.02,5.903v4.926c0.017,3.863,1.734,5.818,5.142,5.818h0.941l0.006-28.411H275.542z"/>
	</g>
</g>
<g>
</g>
<g>
</g>
<g>
</g>
<g>
</g>
<g>
</g>
<g>
</g>
</svg>
