<?xml version="1.0" encoding="iso-8859-1"?>
<!-- Generator: Adobe Illustrator 19.0.0, SVG Export Plug-In . SVG Version: 6.00 Build 0)  -->
<svg version="1.1" id="Layer_1" xmlns="http://www.w3.org/2000/svg" xmlns:xlink="http://www.w3.org/1999/xlink" x="0px" y="0px"
	 viewBox="0 0 61.09 61.092" style="enable-background:new 0 0 61.09 61.092;" xml:space="preserve">
<g>
	<path style="fill:#FFFFFF;" d="M54.984,0H6.105C2.731,0,0,2.735,0,6.104v48.873c0,3.376,2.731,6.114,6.105,6.114h48.879
		c3.37,0,6.106-2.738,6.106-6.114V6.104C61.09,2.735,58.354,0,54.984,0L54.984,0z M58.035,54.978L58.035,54.978
		c0,1.691-1.375,3.05-3.05,3.05H6.105c-1.678,0-3.046-1.358-3.046-3.05V6.104c0-1.682,1.368-3.05,3.046-3.05h48.879
		c1.675,0,3.05,1.369,3.05,3.05V54.978L58.035,54.978z"/>
	<path style="fill:#E30613;" d="M30.541,51.961c-10.569,0-15.297-8.479-15.297-16.884c0-5.747,1.938-12.368,5.189-17.707
		c3.136-5.157,6.915-8.235,10.108-8.235c3.2,0,6.982,3.078,10.122,8.235c3.251,5.34,5.192,11.961,5.192,17.707
		C45.854,43.481,41.119,51.961,30.541,51.961L30.541,51.961z"/>
</g>
</svg>
