<?xml version="1.0" encoding="iso-8859-1"?>
<!-- Generator: Adobe Illustrator 19.0.0, SVG Export Plug-In . SVG Version: 6.00 Build 0)  -->
<svg version="1.1" id="&#x421;&#x43B;&#x43E;&#x439;_1"
	 xmlns="http://www.w3.org/2000/svg" xmlns:xlink="http://www.w3.org/1999/xlink" x="0px" y="0px"
	 viewBox="-149 199.5 133.667 63.333" style="enable-background:new -149 199.5 133.667 63.333;" xml:space="preserve">
<title>logo</title>
<path style="fill:#1A4EF8;" d="M-59.463,206.924l-17.468,54.537l-0.109,0.334l-3.21-7.424l-6.7,3.519l17.577-54.871l6.7-3.519
	L-59.463,206.924z M-15.723,208.208l-17.468,54.625l-3.21-7.442l-6.7,3.519l0.405-1.284l17.468-54.607l6.7-3.519l3.194,7.424
	L-15.723,208.208z M-53.121,255.444l10.284-32.106l-6.716,3.519l-3.194-7.442l-10.316,32.106l3.194,7.442L-53.121,255.444z
	 M-108.782,223.778h-30.729l5.236,5.63l-5.236,5.718h30.698l5.22-5.718L-108.782,223.778z M-143.764,247.581h49.677l-5.22,5.682
	l5.22,5.665h-49.677l-5.236-5.665L-143.764,247.581z M-128.525,199.957h49.646l-5.205,5.682l5.205,5.665h-49.646l-5.236-5.665
	L-128.525,199.957z"/>
</svg>
