<?xml version="1.0" encoding="iso-8859-1"?>
<!-- Generator: Adobe Illustrator 19.0.0, SVG Export Plug-In . SVG Version: 6.00 Build 0)  -->
<svg version="1.1" id="Layer_1" xmlns="http://www.w3.org/2000/svg" xmlns:xlink="http://www.w3.org/1999/xlink" x="0px" y="0px"
	 viewBox="0 0 146.5 128.5" style="enable-background:new 0 0 146.5 128.5;" xml:space="preserve">
<path style="fill:#E52713;" d="M71.687,16.542c6.757,0,8.879,4.838,10.653,9.683c0.753,2.048,18.3,50.096,18.824,51.538
	c0.147,0.397,0.051,1.06-0.569,1.299c-0.622,0.233-9.741,3.782-10.243,3.969c-0.505,0.19-1.071-0.091-1.258-0.59
	c-0.187-0.499-3.965-10.974-4.393-12.147c-1.255,0-24.741,0-25.997,0c-0.426,1.173-4.245,11.666-4.421,12.147
	c-0.175,0.479-0.721,0.803-1.254,0.59c-0.536-0.213-9.694-3.759-10.234-3.969c-0.525-0.201-0.765-0.797-0.579-1.299
	c0.646-1.804,17.923-49.08,18.809-51.538C62.733,21.458,64.936,16.542,71.687,16.542z M40.825,102.512
	c-0.546,0-0.985,0.453-0.985,1.01v11.222c0,0.56,0.439,1.01,0.985,1.01h61.726c0.541,0,0.976-0.45,0.976-1.01v-11.222
	c0-0.557-0.435-1.01-0.976-1.01H40.825 M71.635,32.233l-8.791,26.395h17.722l-8.82-26.395H71.635z"/>
<g>
</g>
<g>
</g>
<g>
</g>
<g>
</g>
<g>
</g>
<g>
</g>
<g>
</g>
<g>
</g>
<g>
</g>
<g>
</g>
<g>
</g>
<g>
</g>
</svg>
