<?xml version="1.0" encoding="iso-8859-1"?>
<!-- Generator: Adobe Illustrator 19.0.0, SVG Export Plug-In . SVG Version: 6.00 Build 0)  -->
<svg version="1.1" id="&#x421;&#x43B;&#x43E;&#x439;_1"
	 xmlns="http://www.w3.org/2000/svg" xmlns:xlink="http://www.w3.org/1999/xlink" x="0px" y="0px" viewBox="-209 11 80 80"
	 style="enable-background:new -209 11 80 80;" xml:space="preserve">
<g style="display:none;">
	<title>background</title>
	<rect id="canvas_background" x="-210" y="10" style="display:inline;fill:none;" width="82" height="82"/>
</g>
<g>
	<title>Layer 1</title>
	<path id="svg_12" style="fill:#FF8C00;" d="M-154.181,67.048c-0.717,0-1.315,0.247-1.684,0.696
		c-0.943,1.145-0.519,3.163,0.925,4.407c0.631,0.543,1.538,0.868,2.43,0.868c0.908,0,1.664-0.336,2.131-0.944
		c0.841-1.111,0.358-2.685-1.23-4.008C-152.396,67.41-153.309,67.048-154.181,67.048 M-146.265,61.289
		c-0.703-0.202-1.227-0.052-1.486,0.414c-0.393,0.707-0.103,2.104,0.689,3.322c0.802,1.233,1.482,1.858,2.022,1.858
		c0.186,0.001,0.364-0.081,0.485-0.222c0.301-0.341,0.4-1.055,0.274-1.958C-144.409,63.78-144.984,61.882-146.265,61.289
		 M-130.586,89.267c0.727,0.886-0.377,1.787-1.2,1.067c-8.217-7.176-15.128-9.208-21.963-9.491
		c-3.628-0.148-7.233,0.194-11.002,0.523c-1.097,0.095-2.194,0.184-3.291,0.266c-1.329,0.141-2.675,0.216-4.041,0.216
		c-6.433,0-12.501-1.554-18.04-4.62c-5.559-3.075-9.979-7.369-13.133-12.767C-206.405,59.081-208,53.13-208,46.781
		c0-6.344,1.593-12.318,4.736-17.757c3.089-5.387,7.575-9.841,12.984-12.891c5.394-3.085,11.504-4.698,17.718-4.678
		c6.573,0,12.714,1.555,18.258,4.62c5.558,3.075,9.99,7.383,13.174,12.806c3.177,5.415,4.789,11.381,4.789,17.729
		c0,2.452-0.24,4.844-0.714,7.172c-0.062,0.336-0.15,0.746-0.273,1.223c-0.093,0.382-0.191,0.763-0.297,1.141l-0.028-0.017
		c-0.639,2.01-1.824,4.855-4.029,8.507c-0.238,0.385-0.369,0.092-0.4-0.123c-0.772-5.372-3.158-9.451-7.366-12.085l-0.212-0.127
		c-0.711-0.43-1.449-0.811-2.211-1.141c-1.054-0.454-2.14-0.829-3.249-1.121c-0.713-0.188-2.304-0.107-1.726-0.672
		c0.238-0.232,3.683-0.286,7.643-0.038l0.232,0.014c0.074-0.819,0.112-1.657,0.112-2.519c0-6.701-2.251-12.166-6.88-16.704
		c-4.633-4.541-10.049-6.749-16.561-6.749c-6.666,0-12.074,2.21-16.527,6.758c-4.476,4.571-6.652,9.99-6.652,16.567
		c0,6.561,2.238,11.958,6.84,16.495c4.603,4.538,9.949,6.744,16.339,6.744c0.307,0,0.609-0.008,0.913-0.017
		c-0.007-0.076-0.014-0.153-0.018-0.228c-0.368-4.627-0.447-8.471,0.519-6.921c0.339,0.549,0.679,1.066,1.018,1.565
		c1.258,1.858,2.507,3.386,3.748,4.654l0.188,0.188c4.544,4.547,9.017,5.665,13.77,6.816l0.304,0.074
		c0.779,0.189,1.565,0.382,2.361,0.591C-143.848,78.142-137.729,80.54-130.586,89.267"/>
</g>
</svg>
