<?xml version="1.0" encoding="iso-8859-1"?>
<!-- Generator: Adobe Illustrator 19.0.0, SVG Export Plug-In . SVG Version: 6.00 Build 0)  -->
<svg version="1.1" id="&#x421;&#x43B;&#x43E;&#x439;_1"
	 xmlns="http://www.w3.org/2000/svg" xmlns:xlink="http://www.w3.org/1999/xlink" x="0px" y="0px" viewBox="0 0 116.508 49.035"
	 style="enable-background:new 0 0 116.508 49.035;" xml:space="preserve">
<g>
	<rect x="-13.089" y="-21.357" style="display:none;fill:#EF7D00;" width="141.732" height="90.173"/>
	<g style="display:none;">
		<path style="display:inline;fill:#FFFFFF;" d="M57.714-14.25c34.583,0,62.63,17.01,62.63,37.976
			c0,20.976-28.047,37.985-62.63,37.985c-34.579,0-62.623-17.008-62.623-37.985C-4.909,2.76,23.135-14.25,57.714-14.25L57.714-14.25
			z"/>
	</g>
	<linearGradient id="SVGID_1_" gradientUnits="userSpaceOnUse" x1="15.2709" y1="-2.0207" x2="72.4483" y2="32.3349">
		<stop  offset="0.0154" style="stop-color:#FFFFFF"/>
		<stop  offset="0.1011" style="stop-color:#008ECF"/>
		<stop  offset="0.2594" style="stop-color:#008ECF"/>
		<stop  offset="1" style="stop-color:#008ECF"/>
	</linearGradient>
	<polygon style="fill:url(#SVGID_1_);" points="10.318,3.503 4.086,12.778 53.587,12.778 60.278,3.503 	"/>
	<path style="fill:#008ECF;" d="M84.421,7.615c0.725-1.058,2.311-4.121-2.339-4.112c0,0-0.001,0-0.24,0L62.764,3.562l-4.602,9.245
		l14.719-0.002L52.664,49.035L84.421,7.615z"/>
	<path style="fill:#1D1D1B;" d="M4.792,32.537C1.207,32.435-1.263,28.554,0,24.76c1.097-3.295,3.053-6.003,6.116-7.779
		c1.933-1.17,4.062-1.709,6.312-1.709c1.649,0,2.883,0.395,3.332,0.764l0.294,0.236l-2.285,3.768l-0.478-0.301
		c-0.271-0.162-1.068-0.447-2.332-0.447c-1.179,0-2.377,0.381-3.376,1.076c-1.474,1.003-2.637,2.673-3.189,4.595
		c-0.664,2.306,0.187,3.58,2.393,3.58c0.966,0,2.001-0.176,2.764-0.468l0.76-0.291L9.58,31.65C9.58,31.65,7.93,32.645,4.792,32.537z
		"/>
	<path style="fill:#1D1D1B;" d="M90.864,32.537c-3.585-0.102-6.056-3.984-4.792-7.778c1.096-3.295,3.053-6.003,6.116-7.779
		c1.933-1.17,4.062-1.709,6.312-1.709c1.649,0,2.883,0.395,3.332,0.764l0.294,0.236l-2.284,3.768l-0.478-0.301
		c-0.271-0.162-1.068-0.447-2.331-0.447c-1.18,0-2.378,0.381-3.376,1.076c-1.474,1.003-2.636,2.673-3.189,4.595
		c-0.664,2.306,0.186,3.58,2.393,3.58c0.967,0,2.002-0.176,2.764-0.468l0.76-0.291l-0.731,3.866
		C95.652,31.65,94.002,32.645,90.864,32.537z"/>
	<path style="fill:#1D1D1B;" d="M17.118,32.561c-3.868,0-5.645-2.848-4.422-7.09c0.88-3.052,2.788-5.972,5.108-7.809
		c1.958-1.544,4.23-2.389,6.403-2.389c3.913,0,5.64,2.786,4.4,7.092c-0.879,3.049-2.752,5.954-5.009,7.782
		C21.612,31.732,19.374,32.561,17.118,32.561z M22.704,19.201c-0.797,0-1.634,0.347-2.424,1.007
		c-1.436,1.156-2.672,3.462-3.158,5.149c-0.432,1.497-0.506,3.278,1.582,3.278c0.734,0,1.574-0.346,2.362-0.973
		c1.322-1.083,2.628-3.5,3.119-5.206C25.125,19.201,23.303,19.201,22.704,19.201z"/>
	<path style="fill:#1D1D1B;" d="M34.36,32.307l-0.341-6.624c-0.034-1.05-0.051-1.959-0.039-2.864
		c-0.476,1.061-1.029,2.262-1.634,3.546l-2.789,5.942h-4.154l7.93-16.779h4.667l0.305,6.345c0.014,0.8,0.014,1.557-0.002,2.302
		c0.329-0.774,0.703-1.598,1.132-2.503l2.891-6.144h4.151l-7.905,16.779H34.36z"/>
	<polygon style="fill:#1D1D1B;" points="53.282,32.307 59.319,19.595 55.252,19.595 57.183,15.529 69.89,15.529 67.946,19.595 
		63.797,19.595 57.761,32.307 	"/>
	<path style="fill:#1D1D1B;" d="M78.97,32.307l0.859-4.06h-3.634l-3.059,4.06h-4.871l13.318-16.779h5.019l-2.92,16.779H78.97z
		 M80.73,24.552c0,0,0.813-3.815,0.866-4.071c-0.222,0.317-2.927,4.071-2.927,4.071H80.73z"/>
	<polygon style="fill:#1D1D1B;" points="99.904,32.307 105.942,19.595 101.827,19.595 103.802,15.529 116.508,15.529 
		114.566,19.595 110.418,19.595 104.379,32.307 	"/>
	<path style="fill:#008ECF;" d="M46.263,34.778L63.711,0l-28.98,40.085l-0.081,0.102c0,0-0.86,1.107-0.692,2.36
		c0.11,0.831,0.772,1.559,2.783,1.553c0.166,0,0.321,0.009,0.469,0.023h17.461l5.038-9.345H46.263z"/>
	<linearGradient id="SVGID_2_" gradientUnits="userSpaceOnUse" x1="65.577" y1="29.8644" x2="100.4754" y2="49.2089">
		<stop  offset="0" style="stop-color:#008ECF"/>
		<stop  offset="0.7406" style="stop-color:#008ECF"/>
		<stop  offset="0.8989" style="stop-color:#008ECF"/>
		<stop  offset="0.9846" style="stop-color:#FFFFFF"/>
	</linearGradient>
	<polygon style="fill:url(#SVGID_2_);" points="64.442,34.778 57.339,44.123 102.691,44.123 108.376,34.764 	"/>
</g>
<g>
</g>
<g>
</g>
<g>
</g>
<g>
</g>
<g>
</g>
<g>
</g>
</svg>
