<?xml version="1.0" encoding="iso-8859-1"?>
<!-- Generator: Adobe Illustrator 19.0.0, SVG Export Plug-In . SVG Version: 6.00 Build 0)  -->
<svg version="1.1" id="&#x421;&#x43B;&#x43E;&#x439;_1"
	 xmlns="http://www.w3.org/2000/svg" xmlns:xlink="http://www.w3.org/1999/xlink" x="0px" y="0px" viewBox="0 0 102 99"
	 style="enable-background:new 0 0 102 99;" xml:space="preserve">
<g>
	<polygon style="display:none;fill-rule:evenodd;clip-rule:evenodd;fill:#FFFFFF;" points="0,-49 192.756,-49 192.756,143.756 
		0,143.756 0,-49 	"/>
	<path style="fill-rule:evenodd;clip-rule:evenodd;fill:#37AC57;" d="M62.765,63.754c0-2.333,1.895-4.231,4.228-4.231
		c2.34,0,4.231,1.898,4.231,4.231c0,2.338-1.89,4.231-4.231,4.231C64.66,67.985,62.765,66.092,62.765,63.754L62.765,63.754
		L62.765,63.754z M55.027,87.007h-7.98V53.82c0-0.289,0.023-0.584,0.387-0.584l5.392,0.02c1.861,0,3.077-1.285,3.077-3.505V8.08
		c19.521,2.517,34.601,19.201,34.601,39.41C90.504,68.002,74.972,84.881,55.027,87.007L55.027,87.007z M51.316,63.754
		c0-2.333,1.897-4.231,4.234-4.231c2.34,0,4.232,1.898,4.232,4.231c0,2.338-1.892,4.231-4.232,4.231
		C53.213,67.985,51.316,66.092,51.316,63.754L51.316,63.754L51.316,63.754z M74.215,63.754c0-2.333,1.891-4.231,4.231-4.231
		c2.332,0,4.228,1.898,4.228,4.231c0,2.338-1.896,4.231-4.228,4.231C76.106,67.985,74.215,66.092,74.215,63.754L74.215,63.754
		L74.215,63.754z"/>
	<path style="fill-rule:evenodd;clip-rule:evenodd;fill:#37AC57;" d="M8.504,47.49c0-21.952,17.792-39.741,39.74-39.741
		c0.941,0,1.862,0.032,2.789,0.095v40.26c0,0.29-0.026,0.582-0.385,0.582l-5.391-0.024c-1.862,0-3.069,1.294-3.069,3.512v34.597
		C23.112,83.853,8.504,67.372,8.504,47.49L8.504,47.49L8.504,47.49z M36.946,37.129c0-2.602,2.098-4.704,4.698-4.704
		c2.599,0,4.712,2.103,4.712,4.704c0,2.591-2.113,4.702-4.712,4.702C39.044,41.831,36.946,39.721,36.946,37.129L36.946,37.129z"/>
</g>
</svg>
