<?xml version="1.0" encoding="iso-8859-1"?>
<!-- Generator: Adobe Illustrator 19.0.0, SVG Export Plug-In . SVG Version: 6.00 Build 0)  -->
<svg version="1.1" xmlns="http://www.w3.org/2000/svg" xmlns:xlink="http://www.w3.org/1999/xlink" x="0px" y="0px"
	 viewBox="0 0 788.064 106.911" style="enable-background:new 0 0 788.064 106.911;" xml:space="preserve">
<g id="&#x421;&#x43B;&#x43E;&#x439;_1">
</g>
<g id="&#x421;&#x43B;&#x43E;&#x439;_5">
	<path id="XMLID_13_" style="fill:#121212;" d="M163,48.911c24.75-19.5,9.5-47.5-15.75-47.5h-38.63c-8.07,0-14.62,6.05-14.62,14.13
		v73.93c0,9.08,7.36,16.94,16.44,16.94h36.55c0.84,0,1.69-0.29,2.52-0.4C181.4,101.831,197.25,61.411,163,48.911z M123,28.401
		c0-0.62,0.44-0.99,1.06-0.99h10.25c14.75,0,14.5,16,0,17h-10.08c-0.72,0-1.23-0.46-1.23-1.18V28.401z M140.68,79.411h-15.54
		c-1.22,0-2.14-1.12-2.14-2.34V61.99c0-0.94,0.7-1.58,1.64-1.58h16.04C153.43,62.411,153.06,77.411,140.68,79.411z"/>
	<path id="XMLID_9_" style="fill:#FFFFFF;" d="M140.68,79.411h-15.54c-1.22,0-2.14-1.12-2.14-2.34V61.99c0-0.94,0.7-1.58,1.64-1.58
		h16.04C153.43,62.411,153.06,77.411,140.68,79.411z"/>
</g>
<g id="&#x421;&#x43B;&#x43E;&#x439;_7">
	<path id="XMLID_1_" style="fill:#121212;" d="M0,160.411"/>
	<path id="XMLID_4_" style="fill:#121212;" d="M0,35.911v-20.5c0-8.008,6.492-14.5,14.5-14.5H51h19c16.667,4.333,15.667,24.667,0,27
		H30v13h33c14.5,3,12.167,22.667,0,24H29v14h3h38c16.5,3.333,16.333,23.833,0,28H16.917C7.574,106.911,0,99.337,0,89.994V35.911"/>
	<path id="XMLID_5_" style="fill:#121212;" d="M518,35V14.5C518,6.492,524.492,0,532.5,0H569l19,0c16.667,4.333,15.667,24.667,0,27
		h-40v13h33c14.5,3,12.167,22.667,0,24h-34v14h3h38c16.5,3.333,16.333,23.833,0,28h-53.083C525.574,106,518,98.426,518,89.083V35"/>
</g>
<g id="&#x421;&#x43B;&#x43E;&#x439;_6">
	<path id="XMLID_63_" style="fill:#121212;" d="M502.905,14.126c5.53,10.492-2.626,22.802-15.184,19.705
		c-0.54-0.133-1.07-0.322-1.59-0.52c-9.724-3.71-18.25-5.658-23.344-4.078c-16.825,3.64-27.036,28.602-6.123,45.579
		c7.049,6.112,15.673,3.893,25.466,0l3.761-1.612c2.595-1.112,5.444-1.567,8.245-1.206c7.684,0.991,11.583,6.067,10.946,16.038
		c0,10.951-23.087,19.742-46.422,16.609c-0.681-0.091-1.36-0.229-2.024-0.406c-28.799-7.657-47.991-27.011-41.069-63.02
		c0.142-0.74,0.339-1.48,0.584-2.192c9.103-26.484,28.011-38.152,54.625-38.176c9.975,0.165,18.675,2.759,26.342,7.32
		C499.536,9.606,501.593,11.636,502.905,14.126z"/>
</g>
<g id="&#x421;&#x43B;&#x43E;&#x439;_4">
	<path id="XMLID_22_" style="fill:#121212;" d="M343.33,0.661c-30.37,0-55,23.5-55,52.5c0,28.99,24.63,52.5,55,52.5
		c30.38,0,55-23.51,55-52.5C398.33,24.161,373.71,0.661,343.33,0.661z M343.5,78.341c-14.08,0-25.5-11.46-25.5-25.6
		c0-14.14,11.42-25.6,25.5-25.6s25.5,11.46,25.5,25.6C369,66.881,357.58,78.341,343.5,78.341z"/>
	<g id="&#x421;&#x43B;&#x43E;&#x439;_8">
		<path id="XMLID_12_" style="fill:#FFFFFF;" d="M369,52.74c0,14.14-11.42,25.6-25.5,25.6S318,66.881,318,52.74
			c0-14.14,11.42-25.6,25.5-25.6S369,38.601,369,52.74z"/>
	</g>
</g>
<g id="&#x421;&#x43B;&#x43E;&#x439;_3">
	<path id="XMLID_28_" style="fill:#121212;" d="M250.55,1.051c-1.52-0.43-3.11-0.64-4.69-0.64h-35.54
		c-9.56,0-17.32,7.76-17.32,17.32v71.01c0,5.68,2.73,11.09,7.45,14.24c4.77,3.18,9.2,3.47,13.77,0.77c5.1-3.02,7.78-8.7,7.78-14.62
		v-9.33c0-2.56,1.63-3.39,3.04-3.39h20.89c1.56,0,3.12-0.36,4.62-0.77C286.26,65.62,293.21,13.011,250.55,1.051z M242,52.411h-16.81
		c-1.21,0-2.19-0.98-2.19-2.19v-20.62c0-1.21,0.98-2.19,2.19-2.19h16.64c0.11,0,0.23,0.01,0.34,0.02
		C254.24,28.99,253.2,51.791,242,52.411z"/>
	<path id="XMLID_7_" style="fill:#121212;" d="M766.554,31.225c-1.5-0.41-3.06-0.814-4.62-0.814h-20.89
		c-1.41,0-3.044-0.652-3.044-3.212v-9.33c0-5.92-2.679-11.6-7.779-14.62c-4.57-2.7-8.999-2.41-13.769,0.77
		c-4.72,3.15-7.452,8.56-7.452,14.24v71.01c0,9.56,7.764,17.142,17.324,17.142h35.54c1.58,0,3.17-0.121,4.69-0.551
		C809.214,93.9,802.264,41.245,766.554,31.225z M758.174,79.391c-0.11,0.01-0.23,0.02-0.34,0.02h-16.64
		c-1.21,0-2.194-0.802-2.194-2.012v-20.62c0-1.21,0.984-2.368,2.194-2.368h16.81C769.204,55.411,770.244,77.831,758.174,79.391z"/>
	<g id="&#x421;&#x43B;&#x43E;&#x439;_11">
		<path id="XMLID_15_" style="fill:#FFFFFF;" d="M242,52.411h-16.81c-1.21,0-2.19-0.98-2.19-2.19v-20.62c0-1.21,0.98-2.19,2.19-2.19
			h16.64c0.11,0,0.23,0.01,0.34,0.02C254.24,28.99,253.2,51.791,242,52.411z"/>
	</g>
</g>
<g id="&#x421;&#x43B;&#x43E;&#x439;_9">
	<path id="XMLID_3_" style="fill:#121212;" d="M638.155,28.961v64.832c0,0.355,0.106,0.708,0.304,1.003
		c10.558,15.696,23.821,11.666,28.756-0.118c0.093-0.222,0.139-0.464,0.139-0.705V28.961c0-0.984,0.797-1.781,1.781-1.781h18.487
		c0.114,0,0.23-0.009,0.342-0.028c13.103-2.238,17.074-21.543,0.075-26.185c-0.16-0.044-0.33-0.066-0.496-0.066h-66.764
		c-0.096,0-0.194,0.007-0.289,0.021c-19.267,2.842-15.727,25.041,0.055,26.252c0.059,0.005,0.12,0.007,0.18,0.007h15.649
		C637.357,27.18,638.155,27.977,638.155,28.961z"/>
</g>
<g id="&#x421;&#x43B;&#x43E;&#x439;_10">
</g>
<g id="&#x421;&#x43B;&#x43E;&#x439;_2" style="display:none;">
</g>
</svg>
