<?xml version="1.0" encoding="iso-8859-1"?>
<!-- Generator: Adobe Illustrator 19.0.0, SVG Export Plug-In . SVG Version: 6.00 Build 0)  -->
<svg version="1.1" id="Layer_1" xmlns="http://www.w3.org/2000/svg" xmlns:xlink="http://www.w3.org/1999/xlink" x="0px" y="0px"
	 viewBox="0 0 365 137.583" style="enable-background:new 0 0 365 137.583;" xml:space="preserve">
<g id="XMLID_1_">
	<path id="XMLID_19_" style="fill:#141414;" d="M0,48.45v19.862l53.582-5.894V40.92L0,48.45 M17.099,69.52v68.063h19.617V67.515
		L17.099,69.52 M60.818,39.903v97.679h20.671V36.997L60.818,39.903 M85.34,36.455v22.47l29.849-3.284v-23.38L85.34,36.455
		 M85.34,75.65v22.88l19.594-1.069V73.964L85.34,75.65 M85.34,115.021v22.561h29.849v-23.462L85.34,115.021 M192.38,21.378v116.204
		h27.098V17.569L192.38,21.378 M224.538,16.857v26.73l39.49-4.342V11.306L224.538,16.857 M224.538,63.69v27.225l25.883-1.413V61.473
		L224.538,63.69 M224.538,110.814v26.769h39.49v-27.961L224.538,110.814 M123.086,31.15v106.433h23.546V27.839L123.086,31.15
		 M151.027,113.04v24.542h34.179v-25.573L151.027,113.04 M352.563,9.992c-8.564-8.091-21.121-11.41-34.856-9.437v29.646
		c5.562-0.309,10.069,1.755,12.077,5.911c3.171,6.552-0.1,16.383-7.817,25.491c-11.911,14.055-43.583,42.823-43.583,42.823
		l45.467-1.495c27.781-27.141,37.758-43.616,39.548-64.178C364.339,27.876,360.39,17.395,352.563,9.992 M365,137.583v-31.021
		l-92.221,2.778 M272.779,109.339l0.01,28.243H365 M312.405,1.221c-26.791,5.706-39.947,25.416-38.429,57.577l28.565-2.535
		c-1.301-18.17,4.256-22.48,9.877-24.85L312.405,1.221"/>
</g>
<g id="XMLID_96_">
</g>
<g id="XMLID_97_">
</g>
<g id="XMLID_98_">
</g>
<g id="XMLID_99_">
</g>
<g id="XMLID_100_">
</g>
<g id="XMLID_101_">
</g>
<g id="XMLID_102_">
</g>
<g id="XMLID_103_">
</g>
<g id="XMLID_104_">
</g>
<g id="XMLID_105_">
</g>
<g id="XMLID_106_">
</g>
<g id="XMLID_107_">
</g>
<g id="XMLID_108_">
</g>
<g id="XMLID_109_">
</g>
<g id="XMLID_110_">
</g>
</svg>
