<?xml version="1.0" encoding="iso-8859-1"?>
<!-- Generator: Adobe Illustrator 19.0.0, SVG Export Plug-In . SVG Version: 6.00 Build 0)  -->
<svg version="1.1" id="&#x421;&#x43B;&#x43E;&#x439;_1"
	 xmlns="http://www.w3.org/2000/svg" xmlns:xlink="http://www.w3.org/1999/xlink" x="0px" y="0px" viewBox="0 0 80 77"
	 style="enable-background:new 0 0 80 77;" xml:space="preserve">
<g>
	
		<path style="fill-rule:evenodd;clip-rule:evenodd;fill:#5F5742;stroke:#E3DFD8;stroke-width:0.3529;stroke-linejoin:round;stroke-miterlimit:2.6131;" d="
		M41.208,11.577c-14.819,0-26.834,12.054-26.834,26.917c0,14.873,12.015,26.934,26.834,26.934c14.824,0,26.839-12.061,26.839-26.934
		c0-10.421-5.918-19.443-14.561-23.917c-0.08-0.075-0.149-0.141-0.235-0.219c0,0-0.006,0.04-0.006,0.101
		c-1.052-0.534-2.149-0.995-3.275-1.387c0.086-0.366,0.201-0.908,0.247-1.309c0.052-0.49-0.339-1.003-1.144-0.809
		c-0.558,0.123-1.988,0.625-3.24,1.049C44.328,11.741,42.788,11.577,41.208,11.577L41.208,11.577z"/>
	
		<path style="fill-rule:evenodd;clip-rule:evenodd;fill:#5F5742;stroke:#E3DFD8;stroke-width:0.3529;stroke-linejoin:round;stroke-miterlimit:2.6131;" d="
		M41.208,67.077c15.733,0,28.483-12.798,28.483-28.583c0-12.344-7.803-22.864-18.738-26.859l0.115,0.646
		c10.556,3.992,18.065,14.224,18.065,26.213c0,15.473-12.503,28.018-27.925,28.018s-27.92-12.545-27.92-28.018
		c0-15.468,12.498-28.01,27.92-28.01c1.66,0,3.292,0.144,4.877,0.424l0.966-0.386c-1.885-0.39-3.838-0.597-5.843-0.597
		c-15.727,0-28.483,12.788-28.483,28.568C12.724,54.279,25.48,67.077,41.208,67.077L41.208,67.077z"/>
	
		<path style="fill-rule:evenodd;clip-rule:evenodd;fill:#FFFFFF;stroke:#5F5742;stroke-width:0.0951;stroke-linejoin:round;stroke-miterlimit:2.6131;" d="
		M14.374,38.494c0-14.863,12.015-26.917,26.834-26.917c14.824,0,26.839,12.054,26.839,26.917c0,14.873-12.016,26.934-26.839,26.934
		C26.389,65.428,14.374,53.367,14.374,38.494L14.374,38.494z"/>
	<path style="fill-rule:evenodd;clip-rule:evenodd;fill:#5F5742;" d="M51.068,12.281c10.556,3.992,18.065,14.224,18.065,26.213
		c0,15.473-12.503,28.018-27.925,28.018s-27.92-12.545-27.92-28.018c0-15.468,12.498-28.01,27.92-28.01
		c1.66,0,3.292,0.144,4.877,0.424l0.966-0.386c-1.885-0.39-3.838-0.597-5.843-0.597c-15.727,0-28.483,12.788-28.483,28.568
		c0,15.784,12.756,28.583,28.483,28.583c15.733,0,28.483-12.798,28.483-28.583c0-12.344-7.803-22.864-18.738-26.859L51.068,12.281
		L51.068,12.281z"/>
	<path style="fill-rule:evenodd;clip-rule:evenodd;fill:#5F5742;" d="M27.624,43.827c0.275-0.34,0.85-0.818,1.609-1.193
		c1.08-0.547,4.16-0.905,5.867-0.881c1.011,0.011,1.689,0.473,2.161,0.945c0.47,0.473-0.339,0.542-0.742,0.202
		c-0.408-0.334-0.856-0.45-1.327-0.45c-0.471,0-0.971,0.184-1.235,0.38c-0.27,0.208-0.339,0.484-1.011,0.68
		c-0.816,0.23-1.758-0.507-1.758-0.507c0.661,1.251,1.798,1.21,2.43,1.055c0.46-0.122,0.603-0.335,1.281-0.346
		c1.08-0.018,1.551,0.611,1.551,0.611c-1.35-0.069-3.637,0.778-4.723,1.014c-1.351,0.3-2.632,0.34-2.632,0.34
		c0.873,1.084,2.16,1.084,3.108,1.084c0.942,0,3.976-0.225,5.798-0.069c2.287,0.19,4.114,1.695,4.114,3.926
		c0,2.231-1.545,3.447-1.545,3.447c1.954-0.605,2.764-2.162,2.764-2.162c1.04,4.024-1.121,7.241-3.098,8.555
		c-1.643,1.096-6.574,2.226-10.36,0.41c-4.189-2.012-5.775-3.972-5.775-3.972c9.107,0.744,13.561-1.787,13.561-1.787
		c-8.229,0.479-13.969-1.608-17.681-3.24c-1.482-2.363-2.563-4.946-3.195-7.753v0.005c6.81,5.142,12.849,6.024,12.849,6.024
		C22.28,46.15,18.62,41.677,16.189,37.216c0.127-2.605,0.644-5.041,1.495-7.379l0.017-0.04c2.729,7.284,5.729,9.453,5.729,9.453
		c-2.971-6.775-2.948-11.626-2.677-15.281c1.138-1.62,2.43-3.055,3.907-4.364l0.022-0.026c-1.148,6.503,0.231,10.729,0.231,10.729
		c0-5.143,2.879-11.262,5.171-14.38c1.454-0.729,2.856-1.268,4.448-1.715h0.005c-2.091,2.638-3.011,5.197-3.011,5.197
		c4.293-4.099,11.4-6.56,12.48-6.837c1.079-0.265,4.189-1.418,5.068-1.616c0.805-0.193,1.195,0.319,1.144,0.809
		c-0.068,0.637-0.339,1.694-0.339,1.694c2.384,0.583,3.419,1.759,3.419,1.759c-0.092-0.317-0.046-0.859-0.046-0.859
		c3.287,2.934,4.183,4.332,4.275,6.992c0.092,2.663,1.258,3.07,1.931,3.43c0.678,0.361,2.344,1.315,2.879,1.764
		c0.401,0.34,0.229,0.721,0,0.992c-0.225,0.268-0.225,0.36-0.265,0.674c-0.202,1.383-0.816,1.942-1.667,2.254
		c-0.856,0.315-1.804-0.179-1.804-0.179c-0.942,1.038-1.121,0.36-1.167-0.043c-0.04-0.407-0.54-0.09-0.896,0.043
		c-0.362,0.135-0.495-0.36-0.495-0.36c-1.711-0.225-2.459,0.79-2.459,0.79c1.488,0.202,2.235,1.216,2.298,1.622
		c0.069,0.415,0.742,0.136,0.742,0.136s0.063-0.136,0.339-0.268c0.269-0.136,0.339-0.069,0.269,0.268
		c-0.068,0.337-0.138,0.611-0.138,0.611l0.747,0.476c-0.275,1.83-1.08,1.752-1.488,1.553c-2.592-1.3-7.217-1.553-7.217-1.553
		c0.27-0.407,0.919-0.928,0.919-0.928c-11.871,0-13.876,1.447-14.485,2.211c-0.42,0.53-0.058,1.352-0.058,1.352
		c-1.414,0.271-4.999,1.179-6.373,2.443c-1.321,1.21-1.763,4.053-1.81,5.101C27.319,43.96,27.532,43.954,27.624,43.827
		L27.624,43.827z M48.303,13.139c0.133-0.149,0-0.271-0.355-0.042c-0.362,0.221-1.948,1.178-3.017,2.975
		c-0.132,0.227-0.052,0.564,0.517,0.369c0.696-0.245,1.414-0.369,1.729-0.415c0.317-0.046,0.317-0.268,0.093-0.355
		c-0.225-0.095-0.276-0.182-0.179-0.544C47.177,14.765,47.81,13.725,48.303,13.139L48.303,13.139z M45.333,18.008
		c-2.339,1.899-6.188,6.442-8.004,10.699c-0.138,0.317,0,0.366,0.448,0.092c0.454-0.273,1.758-0.902,2.384-1.083
		c0,0-0.678,2.358-0.902,3.657c-0.178,1.07,0.707,0.986,1.259,0.859c0.552-0.124,2.838-0.225,3.24-0.273
		c0,0-2.114-0.499-2.338-1.358c-0.224-0.853,0.379-2.761,0.81-4.056c0.092-0.277-0.046-0.677-0.494-0.502
		c-0.454,0.179-1.08,0.314-1.396,0.502c0,0,1.982-4.876,5.039-8.399L45.333,18.008l10.486,2.173
		c-0.229,1.778-0.879,1.62-1.172,1.534c-0.315-0.092-0.402-0.226-1.35-0.314c-0.299-0.029-1.684-0.185-0.942,0.4
		c1.189,0.954,2.2,2.892,2.2,2.892c0.138-0.632-0.184-1.534-0.355-1.848c-0.178-0.32,0.046-0.407,0.264-0.363
		c0.229,0.043,0.357,0.129,0.771,0.363c0.402,0.222,0.672,0.181,0.765-0.363c0.074-0.47,0.051-1.43-0.041-2.297
		c-0.012-0.064-0.114-0.095-0.138-0.003L45.333,18.008L45.333,18.008z"/>
	<path style="fill-rule:evenodd;clip-rule:evenodd;fill:#5F5742;" d="M58.819,56.556c-1.058-3.551-3.975-5.816-5.597-7.783
		c-0.661-0.801-1.638-1.925-1.638-1.925c0.948,0.542,2.748,0.813,2.748,0.813c-0.495-0.409-1.622-1.758-2.07-2.306
		c-1.252-1.504-3.424-3.188-5.038-3.92c-3.172-1.441-6.476-1.626-6.924-1.712c-0.454-0.093-1.396,0.086-0.816-0.819
		C40.07,38,43.489,35.34,43.489,35.34c-0.718,0-3.867,0.277-4.815,0.406c-0.942,0.138-1.161-0.179-1.212-0.807
		c0,0-1.896,1.79-0.988,2.704c0.138,0.136,0.54,0.182,1.04-0.043c0.489-0.228,1.478-0.545,1.839-0.585c0,0-0.811,1.261-0.988,1.803
		c-0.179,0.542-0.225,0.813,0.626,1.083c0.855,0.265,5.177,1.626,7.826,3.43c2.654,1.804,5.401,4.11,7.43,8.348
		c2.022,4.248,0.907,7.465,0.592,8.053c1.454-0.928,2.774-1.988,4.005-3.193L58.819,56.556L58.819,56.556z"/>
	<path style="fill-rule:evenodd;clip-rule:evenodd;fill:#5F5742;" d="M64.737,47.562c-2.602-2.121-7.17-5.909-12.744-7.211
		c0,0,7.953,3.188,10.791,11.212C63.554,50.289,64.198,48.969,64.737,47.562L64.737,47.562z"/>
	<path style="fill-rule:evenodd;clip-rule:evenodd;fill:#5F5742;" d="M49.125,62.459c0.851-1.989,1.787-6.716,0.799-10.376
		c0,0,0.184,8.612-5.706,11.455c1.655-0.196,3.355-0.565,4.895-1.073L49.125,62.459L49.125,62.459z"/>
	<path style="fill-rule:evenodd;clip-rule:evenodd;fill:#5F5742;" d="M66.41,38.16c-0.764-0.31-5.471-1.647-5.471-1.647
		c1.575-0.087,2.207-1.257,2.207-1.257c-1.482,0.4-3.735,0.583-5.619,0.312c0,0,4.361,1.894,8.705,6.028v-0.04
		c0.115-0.997,0.184-2.018,0.184-3.062C66.415,38.368,66.415,38.299,66.41,38.16L66.41,38.16z"/>
</g>
</svg>
