<?xml version="1.0" encoding="iso-8859-1"?>
<!-- Generator: Adobe Illustrator 19.0.0, SVG Export Plug-In . SVG Version: 6.00 Build 0)  -->
<svg version="1.1" id="Layer_1" xmlns="http://www.w3.org/2000/svg" xmlns:xlink="http://www.w3.org/1999/xlink" x="0px" y="0px"
	 viewBox="0 0 211.52 278.119" style="enable-background:new 0 0 211.52 278.119;" xml:space="preserve">
<g>
	<path style="fill:#FFD000;" d="M0.003,137.959c0-15.618,1.309-25.528,33.651-49.67C60.43,68.302,146.254,0,146.254,0v114.018
		h65.267v164.101H20.389C9.177,278.119,0,268.942,0,257.729L0.003,137.959z"/>
	<g>
		<g>
			<polygon style="fill:#D8B100;" points="146.254,114.018 146.254,180.083 26.321,261.788 177.955,212.451 177.955,114.018 			"/>
			<path d="M91.448,110.601c7.014-8.356,17.256-11.307,22.88-6.587c5.624,4.72,4.5,15.322-2.514,23.679
				c-7.01,8.356-17.256,11.303-22.88,6.584C83.31,129.556,84.437,118.956,91.448,110.601"/>
		</g>
	</g>
</g>
<g>
</g>
<g>
</g>
<g>
</g>
<g>
</g>
<g>
</g>
<g>
</g>
</svg>
