<?xml version="1.0" encoding="iso-8859-1"?>
<!-- Generator: Adobe Illustrator 19.0.0, SVG Export Plug-In . SVG Version: 6.00 Build 0)  -->
<svg version="1.1" id="Layer_1" xmlns="http://www.w3.org/2000/svg" xmlns:xlink="http://www.w3.org/1999/xlink" x="0px" y="0px"
	 viewBox="0 0 70.25 66" style="enable-background:new 0 0 70.25 66;" xml:space="preserve">
<g>
	<path style="fill:#1B3F92;" d="M46.073,27.334v-0.053c0.979-0.309,2.286-1.125,2.286-3.268c0-2.412-1.959-3.52-4.718-3.52h-4.683
		v5.771h-2.754c-3.701,0-4.465,2.594-4.465,4.01c0,2.012,1.162,2.902,3.305,3.971c1.305,0.652,2.863,1.051,2.863,2.541
		c0,0.783-0.723,1.727-2.283,1.727h-2.904c0.436-0.746,0.617-1.561,0.617-2.271c0-0.922-0.326-4.625-5.48-4.625h-4.209v14.277h2.866
		v-6.221l1.161,1.162h7.84c3.661,0,5.404-1.887,5.404-4.137c0-0.799-0.146-1.438-0.4-1.959h2.941c4.535,0,5.588-2.252,5.588-4.014
		C49.049,28.934,47.888,27.607,46.073,27.334z M27.857,38.514h-1.343v-4.666h1.343c1.67,0,2.432,1.014,2.432,2.248
		C30.289,37.242,29.6,38.514,27.857,38.514z M38.959,29.658v3.463c-0.689-0.414-1.484-0.742-2.318-1.104
		c-0.908-0.4-1.887-0.908-1.887-2.055c0-0.58,0.363-1.449,2.104-1.449h1.157h0.943h1.127L38.959,29.658z M41.826,22.727h1.307
		c2.215,0,2.323,1.361,2.323,1.777c0,0.617-0.327,1.762-2.214,1.762h-1.416V22.727z M43.461,32.488h-1.635v-3.975h1.635
		c1.995,0,2.539,0.963,2.539,1.98C46,31.51,45.275,32.488,43.461,32.488z"/>
	<path style="fill:#1B3F92;" d="M61.508,20.174c0-6.828-5.534-12.361-12.361-12.361H31.685c-5.635,0-10.441,3.797-11.899,9.047
		h21.108c8.119,0,11.566,3.777,11.566,12.641v20.033c5.236-1.459,9.047-6.281,9.047-11.895V20.174z"/>
	<path style="fill:#EA5B0C;" d="M10.705,46.219c0,6.828,5.535,12.361,12.361,12.361h17.463c5.635,0,10.439-3.797,11.898-9.047
		H31.318c-8.119,0-11.566-3.777-11.566-12.641V16.859c-5.236,1.459-9.047,6.281-9.047,11.895V46.219z"/>
</g>
</svg>
