<?xml version="1.0" encoding="utf-8"?>
<!-- Generator: Adobe Illustrator 19.0.0, SVG Export Plug-In . SVG Version: 6.00 Build 0)  -->
<svg version="1.1" xmlns="http://www.w3.org/2000/svg" xmlns:xlink="http://www.w3.org/1999/xlink" x="0px" y="0px"
	 viewBox="0 0 222.6 309.6" style="enable-background:new 0 0 222.6 309.6;" xml:space="preserve">
<style type="text/css">
	.st0{fill:#E73439;}
	.st1{fill:#780B0F;}
	.st2{fill:#8DBA50;}
	.st3{fill:#FFFFFF;}
	.st4{fill:#FFCDB3;}
	.st5{fill:#452919;}
	.st6{fill:#AD181E;}
	.st7{fill:#FFC756;}
	.st8{fill:#9C0F13;}
	.st9{fill:#0A0502;}
	.st10{fill:#C9815B;}
	.st11{fill:#78472C;}
	.st12{fill:#70943F;}
	.st13{fill:#211209;}
	.st14{fill:#BF262D;fill-opacity:0.2;}
	.st15{fill:#BF262D;}
	.st16{fill:#2E1A0F;}
</style>
<g id="objects">
	<path class="st0" d="M117.7,105.2c-19.5,3.9-42.4,26.5-53,27.2c-12,0.2-25.8-4.8-25.8-4.8c2.1,9.8-5.9,17.7-5.9,17.7
		c9.7,10.6,38,13.8,55.2,3c-10,26.7-8.1,41.5-8.1,41.5c18.8,10.2,63.6,9.7,90.1-7c-7.3-19.7-13.3-43.2-13.3-48.2
		c5.7-2.9,8.8-9.1,8.8-9.1c-3.9-7.3-18.1-15.6-21.1-16.7C141.5,107.9,117.7,105.2,117.7,105.2z"/>
	<g>
		<g>
			<g>
				<path class="st1" d="M83.8,162.7c-0.2-0.1,0.2-1.7,0.9-4.4c0.7-2.6,1.8-6.3,3.2-10.2c1.5-3.9,3.1-7.4,4.5-9.8
					c1.5-2.3,2.6-3.7,2.7-3.6c0.2,0.1-0.6,1.6-1.9,4c-1.2,2.4-2.7,5.9-4.1,9.8c-1.4,3.9-2.6,7.5-3.5,10.1
					C84.7,161.2,84,162.8,83.8,162.7z"/>
			</g>
		</g>
	</g>
	<path class="st2" d="M146.4,132.3c0.9-7.3,4.8-17.3,9.1-16.9c-2.1-2-6.4-4.3-8.6-3.6c-6.5,2-12,18.3-12,18.3"/>
	<path class="st2" d="M112.8,106.6c-5.2,5.9-8.6,15.9-8.6,15.9l9.7,3.4l6.8-16.5L112.8,106.6z"/>
	<path class="st3" d="M23.9,143.7c3,13,18.8,16.9,14.9,7.7c16.9,6,12.2-8.2,7-11.6c13.8,0,7.9-9.1,3.8-11.3c-4.2-2.1-12-3.2-12-3.2
		c0,12.9-5.4,16.8-9.3,17.5c-1.3-1.7-2.3-3.2-2.3-3.2C24.5,141.7,23.9,143.7,23.9,143.7z"/>
	<path class="st3" d="M118.7,104c-4.1,0.7-10.9,3-9.1,5c1.8,2,10.7,0.9,10.7,0.9c-1.4,2.1-0.5,7.7,2.1,7.7c2.7,0,8.3-4.2,8.3-4.2
		c3.2,4.8,8.1,6.9,9.7,6c1.5-0.8,3.5-5.2,3.5-5.2c3.8,3.9,10.6,2.5,11.6,1.4c1.1-1.1-7-7.3-7-7.3L118.7,104z"/>
	<path class="st4" d="M133.8,30.2c-19,7.5-19.5,29-24.7,34c-33,32.1,48.4,73.1,74.5,24C195,60.3,167.8,22.3,133.8,30.2z"/>
	<path class="st5" d="M79,279.7c-0.6-3.5,2.4-4.1,8.2-4.7c5.8-0.5,28.5-1.9,27.3,3C113.4,282.9,84.8,289.3,79,279.7z"/>
	<path class="st3" d="M78.9,241c0.8,15,4.4,47.3,4.4,47.3s22.4,4.3,27.9-0.9c-0.4-26.7-0.5-42.1-0.5-42.1L78.9,241z"/>
	<g>
		<path class="st6" d="M80.2,258c0.2,2.5,0.5,5.1,0.7,7.6c7.3,3.6,24.4,4.4,30,0.5c0-2.2-0.1-4.2-0.1-6.1
			C102.9,264.2,85.4,261.4,80.2,258z"/>
		<path class="st6" d="M111.1,277.6c0-2.5-0.1-4.9-0.1-7.2c-7.7,4.6-23.2,3.5-29.5,1.1c0.2,2.1,0.4,4.1,0.6,6
			C89.8,280.9,104.9,280.6,111.1,277.6z"/>
	</g>
	<path class="st5" d="M184,273.8c0-3.5-3.1-3.6-9-3.1c-5.8,0.5-28.3,3.4-26.3,8C150.8,283.2,180.1,284.3,184,273.8z"/>
	<path class="st3" d="M176.7,233.5c2,14.9,4.4,47.3,4.4,47.3s-21.2,8.4-27.6,4.3c-4.6-26.3-7.3-41.5-7.3-41.5L176.7,233.5z"/>
	<g>
		<path class="st6" d="M178.5,250.5c0.2,2.5,0.5,5.1,0.7,7.6c-6.5,4.9-23.2,8.8-29.4,6c-0.4-2.2-0.7-4.2-1-6
			C157.4,260.8,174,254.9,178.5,250.5z"/>
		<path class="st6" d="M151.8,275.5c-0.4-2.5-0.8-4.8-1.2-7.1c8.4,3.1,23.4-0.9,29.2-4.4c0.2,2.1,0.4,4.1,0.5,6
			C173.4,274.8,158.4,277.3,151.8,275.5z"/>
	</g>
	<path class="st5" d="M183.7,272.1c2.2,2.5,0.2,20.4,0.2,20.4c15.4,2.8,16.8,15.9-1.7,14.9c-19.3-1-25.9-3.3-27-5.1
		c-1.1-1.8-5.4-18.9-6.6-24.3C153,282.3,179.5,279.2,183.7,272.1z"/>
	<g>
		<path class="st2" d="M79.8,186.4c-2.1,11.8-16.1,47.3-12.4,60.2c9.4,7.5,36.8,15,53.2,6.7c0.5-4.8-1.1-22.3-1.1-22.3l15.3,0.8
			c0.5,11.3,3.5,19.6,4.3,20.1c0.8,0.5,32.8,5.9,48.1-11.3c-3-12.1-17.5-59.6-17.5-59.6c-7.5,3.5-19.3,6.7-19.3,6.7
			c-1.3-9.1-3.4-42.3-3.4-42.3l-46.9-11.1c0,0-9,29.5-9.6,55.8C86.2,190.5,79.8,186.4,79.8,186.4z"/>
	</g>
	<path class="st7" d="M101.1,142c-2.4,6.1,4.6,12.8,9.2,6C114.9,141.2,102.8,137.7,101.1,142z"/>
	<path class="st0" d="M90.6,99.3c-5.7,3.9-15.6,15.2-15.6,15.2c10.4,28.7,50.7,46.9,83.5,34c14.1-8.1,14.5-31.2-5.7-28.3
		C132.5,123.1,108.2,121.3,90.6,99.3z"/>
	<path class="st5" d="M129.5,26.9c-36.1-4.5-33.5,35,8.2,15.2c-13.3,12.6,6.6,13,11.4,7.3c6.3,16.2,23.9,0.9,23.9,0.9
		S156.1,23.4,129.5,26.9z"/>
	<path class="st4" d="M180.8,87.7c15-8.6,23.2,5.2,8.3,14.2c-11.2,6.8-17.2-5.3-17.2-5.3L180.8,87.7z"/>
	<path class="st5" d="M174.4,50c8.1,13.3-7.8,30.8,3.2,29.7c-11.7,13.4-1.6,16.4,6.2,8.3c15.4-5.9,7-25.7,7-25.7L174.4,50z"/>
	<path class="st8" d="M117.3,80.3c10.6-0.7,10.7,4.6,27,8.9C128.1,109.9,113.5,96.2,117.3,80.3z"/>
	<path class="st3" d="M219.2,59.8c3.8-8.8,23.6-8.4,7.7,2.1c17.6,2.7,8.8,23.6-3.2,22.4c8.8,3.9-22.6,8.1-16.5-18.3
		C201.5,75.2,204,48.2,219.2,59.8z"/>
	<path class="st0" d="M128.1,23.4c28.7-26.6,64.6-27.8,82.7-16.3c18.1,11.5,10,56.3,10,56.3s-3.2,3-3.8-2.1
		c-0.4-4.1-6.5-26.5-7.8-26.3c-1.3,0.2-7.3,27.1-18.8,26.6C181.8,61.1,171.7,38.4,128.1,23.4z"/>
	<path class="st3" d="M117.4,26.9c9.5-1.1,48.5,8.1,75.9,47c12-5.6,8.1-24.8,6.7-28.9c-3.6-2.5-17.9,3-17.9,3
		c5.2-12.4,0.6-21.8-1.8-22.2c-12.2-2.2-20.9,5.9-20.9,5.9c4.4-8.6,0.3-18.3-0.8-18.4c-9.7-0.9-19.1,8.8-19.1,8.8
		c3.6-10.9-1.4-14.5-2.5-14.3C135.8,8,121.9,9.9,117.4,26.9z"/>
	<g>
		<g>
			<g>
				<path class="st9" d="M160.7,83.2c-0.4,0-0.7-0.8-1.4-1.7c-0.7-0.9-2.1-1.7-3.8-2c-1.7-0.2-3.4,0.1-4.6,0.5
					c-0.3,0.1-0.6,0.2-0.8,0.3c-0.3,0.1-0.5,0.2-0.7,0.2c-0.4,0.1-0.7,0.1-0.8,0c-0.1-0.1-0.1-0.4,0.2-0.8c0.1-0.2,0.3-0.4,0.5-0.6
					c0.2-0.2,0.5-0.4,0.8-0.7c1.2-1,3.4-1.9,5.9-1.5c2.5,0.3,4.5,2.1,5,3.7C161.5,82.2,161,83.2,160.7,83.2z"/>
			</g>
		</g>
	</g>
	<g>
		<g>
			<g>
				<path class="st9" d="M120.6,71c-0.4,0-0.7-0.7-1-1.7c-0.3-1-0.8-2.5-1.5-3.4c-0.4-0.4-0.7-0.6-1.2-0.7c-0.5-0.1-1,0-1.5,0.1
					c-1,0.2-1.7,0.5-1.9,0.2c-0.2-0.2,0-1,1.1-1.9c0.6-0.4,1.3-0.8,2.4-0.8c1-0.1,2.3,0.4,3.1,1.4c0.8,0.9,1.1,1.9,1.3,2.7
					c0.2,0.8,0.2,1.6,0.1,2.2C121.3,70.3,121,71,120.6,71z"/>
			</g>
		</g>
	</g>
	<g>
		<g>
			<g>
				<path class="st10" d="M135,79.2c-0.2,0-0.4-0.6-0.7-1.4c-0.2-0.4-0.4-0.9-0.7-1.5c-0.3-0.5-0.7-1-1.1-1.4
					c-0.5-0.4-0.9-0.4-1.3-0.3c-0.4,0.2-0.9,0.4-1.2,0.8c-0.3,0.3-0.6,0.6-0.8,0.8c-0.2,0.2-0.4,0.3-0.4,0.2c-0.1,0-0.1-0.2,0-0.5
					c0.1-0.3,0.2-0.7,0.5-1.1c0.3-0.4,0.7-0.9,1.5-1.3c0.2-0.1,0.4-0.2,0.6-0.2c0.2,0,0.5,0,0.7,0c0.5,0.1,0.9,0.3,1.3,0.6
					c0.7,0.6,1.1,1.3,1.4,1.9c0.3,0.6,0.4,1.3,0.5,1.8C135.3,78.6,135.1,79.2,135,79.2z"/>
			</g>
		</g>
	</g>
	<g>
		<g>
			<g>
				<path class="st11" d="M166.6,70.1c-0.4,0-0.2-2.1-1.4-4c-0.6-0.9-1.3-1.6-1.9-2c-0.6-0.4-1-0.4-1.1-0.6c0-0.1,0.1-0.2,0.4-0.3
					c0.3-0.1,0.7-0.1,1.1,0.1c0.9,0.2,2,1,2.7,2.2c0.7,1.2,0.9,2.5,0.8,3.3C167,69.7,166.7,70.1,166.6,70.1z"/>
			</g>
		</g>
	</g>
	<g>
		<g>
			<g>
				<path class="st11" d="M123.8,50.6c-0.1,0.4-1.6,0.4-3.3,1c-1.7,0.5-2.8,1.5-3.1,1.3c-0.1-0.1,0-0.5,0.5-1.1
					c0.4-0.5,1.3-1.1,2.3-1.5C122.2,49.7,123.9,50.3,123.8,50.6z"/>
			</g>
		</g>
	</g>
	<g>
		<path class="st4" d="M75.4,112.7c-0.5-1.6-0.7-3.4-1.9-4.6c-2.3-2.2-6.2-2.1-12.1-7c-1.5-1.3-7.5-6.7-5.2-9.4
			c1.3-1.5,4.8,2.8,6.6,2.9c-3.9-1.7-5.4-4.5-6.1-5.7c-0.8-1.5-1.6-5.3,0.6-5.6c1.3-0.1,5.1,4.7,6.3,5.7c-1.2-2.4-6.4-7.9-4.1-10.8
			c2.5-3.2,7.4,4.1,8.5,6.6c-0.3-2.3-5.4-9.8-1.1-9.5c3.4,0.2,7.7,7,9.5,9.4c4.3,5.7,13.3,10,13.3,17.9"/>
	</g>
	<path class="st3" d="M73.6,114.4c0.2,9.7,8.5,16.6,10.1,16.4c3-0.2,3.9-10,3.9-10c5.5,4.3,12.1,2.1,12.9,0.9
		c1.9-2.7-4.4-11.1-4.4-11.1c8.1,4.5,11.4-1.1,11.7-1.7c0.8-1.9-12.9-12.1-16.8-11.6C84.6,98.6,76.5,106.7,73.6,114.4z"/>
	<path class="st5" d="M79.7,178.3c12.2,8.2,49.8,15.4,90.1,2.8c3,7,3.8,11.5,3.8,11.5c-6.2,11.3-65.4,22.9-96.4,0
		C77.9,185.8,79.7,178.3,79.7,178.3z"/>
	<path class="st7" d="M134.4,184.7c-0.4-1.6-26.2-3.2-26.7-0.4c-1.7,6-1.3,21.5-0.4,23.1c0.9,1.6,20.9,3.8,27.3,1.2
		C136.7,201,134.8,186.3,134.4,184.7z M128.8,204.4c-2.1,0.8-15.4-0.2-16.4-1c-0.9-0.8-0.9-11.1,0-15.1c0.4-0.6,15.7-0.4,16.5,0.6
		C129.6,189.9,130.9,203.6,128.8,204.4z"/>
	<g>
		<g>
			<g>
				<path class="st12" d="M106.2,155.7c0,0,0.1,0.3,0.1,0.9c0,0.6,0,1.4,0.1,2.5c0.1,2.1,0.5,5.4,2.3,8.7c0.9,1.7,2.3,3.3,4.1,4.5
					c1.8,1.2,4.1,2.1,6.6,2.4c2.5,0.3,5.1-0.1,7.7-1.1c2.5-1,4.9-2.7,6.6-5c1.8-2.3,2.8-5,3.1-7.7l0.1-1c0-0.3,0-0.7,0-1l0-0.5l0,0
					c-0.1,0,0.1,0-0.3,0c-1.4-0.1-2.7-0.2-4-0.3c-5.2-0.4-9.8-0.8-13.7-1.1c-3.9-0.3-7.1-0.6-9.3-0.8S106.2,155.8,106.2,155.7
					c0-0.1,1.2-0.1,3.4,0c2.2,0.1,5.4,0.2,9.3,0.4c3.9,0.2,8.6,0.5,13.8,0.8c1.3,0.1,2.6,0.2,4,0.3l0.7,0l0.5,0l0.3,0
					c0,0,0.1,0,0.1,0l0,0.1c0,0.5,0,1,0,1.6c0,0.4,0,0.7,0,1.1l-0.1,1.1c-0.1,1.5-0.6,2.9-1.1,4.3c-0.6,1.4-1.3,2.8-2.3,4
					c-1.9,2.5-4.5,4.3-7.2,5.4c-2.7,1-5.6,1.4-8.3,1.1c-2.7-0.3-5.1-1.3-7.1-2.7c-1.9-1.4-3.4-3.2-4.3-5c-1.8-3.6-2-7-2-9.2
					c0-1.1,0.1-2,0.2-2.5C106.1,156,106.2,155.7,106.2,155.7z"/>
			</g>
		</g>
	</g>
	<g>
		<g>
			<g>
				<path class="st12" d="M178,217.1c0.1,0.1-0.2,0.4-0.9,0.9c-0.6,0.5-1.7,1-3.1,1.4c-1.4,0.3-3.1,0.5-5,0.1
					c-0.9-0.2-1.9-0.5-2.8-1.1c-0.9-0.5-1.8-1.2-2.5-2.2c-0.4-0.4-0.6-1-0.9-1.4c-0.2-0.5-0.4-1-0.6-1.4c-0.3-1-0.6-1.9-0.8-2.8
					c-0.3-1.8-0.5-3.5-0.6-4.8c-0.2-2.7-0.4-4.4-0.2-4.4c0.2,0,0.7,1.6,1.1,4.3c0.2,1.4,0.4,3,0.8,4.7c0.2,0.9,0.4,1.8,0.8,2.6
					c0.2,0.4,0.4,0.9,0.6,1.3c0.2,0.4,0.4,0.8,0.7,1.2c0.6,0.8,1.3,1.4,2.1,1.8c0.8,0.5,1.6,0.8,2.4,1c1.7,0.4,3.2,0.4,4.5,0.2
					C176.5,218.1,177.9,216.9,178,217.1z"/>
			</g>
		</g>
	</g>
	<g>
		<g>
			<g>
				<path class="st12" d="M74,216.6c0.1-0.1,0.4,0.2,0.9,0.8c0.5,0.5,1.3,1.2,2.4,1.5c0.6,0.1,1.2,0.1,1.9,0
					c0.7-0.2,1.4-0.5,2.1-0.9c0.7-0.4,1.4-1,2-1.6c0.7-0.6,1.3-1.3,1.8-2.1c2.3-3.1,3.3-6.6,4.2-9.1c0.8-2.5,1.5-4,1.7-4
					c0.2,0.1-0.2,1.6-0.8,4.2c-0.3,1.3-0.7,2.8-1.3,4.5c-0.6,1.7-1.5,3.5-2.7,5.1c-0.6,0.8-1.3,1.6-2,2.3c-0.7,0.7-1.5,1.3-2.3,1.7
					c-0.8,0.4-1.7,0.8-2.5,0.9c-0.8,0.1-1.7,0-2.4-0.2c-1.4-0.5-2.2-1.4-2.6-2.1C74,217,73.9,216.6,74,216.6z"/>
			</g>
		</g>
	</g>
	<g>
		<g>
			<g>
				<path class="st12" d="M72,245.4c-0.1,0.3-1.3,0.2-2.6-0.5c-1.3-0.7-2-1.7-1.7-2c0.3-0.3,1.2,0.2,2.4,0.8
					C71.2,244.4,72.2,245.1,72,245.4z"/>
			</g>
		</g>
	</g>
	<g>
		<g>
			<g>
				<path class="st12" d="M79.7,249c-0.2,0.3-1.4-0.2-2.8-0.8c-1.4-0.6-2.6-1-2.6-1.3c0-0.4,1.5-0.5,3.1,0.1
					C79,247.6,79.9,248.7,79.7,249z"/>
			</g>
		</g>
	</g>
	<g>
		<g>
			<g>
				<path class="st12" d="M87.8,250.6c-0.2,0.3-0.9,0.3-1.7,0.1c-0.8-0.2-1.5-0.4-1.5-0.8c0-0.4,0.8-0.7,1.8-0.5
					C87.3,249.6,87.9,250.3,87.8,250.6z"/>
			</g>
		</g>
	</g>
	<g>
		<g>
			<g>
				<path class="st12" d="M97.1,251.7c-0.1,0.3-1.2,0.4-2.7,0.4c-1.5,0-2.7-0.4-2.7-0.8c0.1-0.4,1.2-0.6,2.7-0.5
					C95.9,250.8,97.2,251.3,97.1,251.7z"/>
			</g>
		</g>
	</g>
	<g>
		<g>
			<g>
				<path class="st12" d="M105,252.1c0.1,0.4-0.9,0.8-2,0.8c-1.2,0-2.1-0.3-2.1-0.6c0-0.4,0.9-0.6,2-0.7
					C104,251.5,104.9,251.7,105,252.1z"/>
			</g>
		</g>
	</g>
	<g>
		<g>
			<g>
				<path class="st12" d="M110,252.2c0,0.4-0.6,0.7-1.3,0.6c-0.7,0-1.3-0.5-1.2-0.8c0.1-0.4,0.6-0.5,1.3-0.5
					C109.4,251.6,110,251.9,110,252.2z"/>
			</g>
		</g>
	</g>
	<g>
		<g>
			<g>
				<path class="st12" d="M117.5,250.5c0.2,0.3-0.3,1-1.1,1.3c-0.9,0.3-1.7,0.1-1.7-0.2c-0.1-0.4,0.5-0.7,1.3-1
					C116.6,250.2,117.3,250.1,117.5,250.5z"/>
			</g>
		</g>
	</g>
	<g>
		<g>
			<g>
				<path class="st12" d="M143.5,250.5c0,0.4-1.2,0.5-2.4,0.1c-1.2-0.5-2-1.2-1.9-1.5c0.1-0.3,1.2-0.2,2.3,0.3
					C142.6,249.7,143.5,250.1,143.5,250.5z"/>
			</g>
		</g>
	</g>
	<g>
		<g>
			<g>
				<path class="st12" d="M154.2,249.6c0.1,0.3-1,0.9-2.5,1c-1.5,0.1-2.6-0.5-2.5-0.8c0.1-0.4,1.2-0.4,2.5-0.5
					C153,249.2,154.1,249.2,154.2,249.6z"/>
			</g>
		</g>
	</g>
	<g>
		<g>
			<g>
				<path class="st12" d="M163.9,248.5c0.1,0.3-0.8,0.9-2,1.1c-1.2,0.2-2.3-0.1-2.3-0.4c0-0.4,0.9-0.6,2-0.9
					C162.8,248.1,163.8,248.1,163.9,248.5z"/>
			</g>
		</g>
	</g>
	<g>
		<g>
			<g>
				<path class="st12" d="M176.6,244.7c0.2,0.3-0.6,1.1-1.9,1.6c-1.3,0.5-2.5,0.4-2.5,0c0-0.4,0.9-0.7,2.1-1.2
					C175.3,244.6,176.4,244.4,176.6,244.7z"/>
			</g>
		</g>
	</g>
	<g>
		<g>
			<g>
				<path class="st12" d="M186.4,241c0.1,0.4-0.5,0.8-1.3,1c-0.8,0.2-1.5,0.2-1.6-0.1c-0.1-0.3,0.4-0.9,1.2-1.1
					C185.6,240.4,186.4,240.6,186.4,241z"/>
			</g>
		</g>
	</g>
	<g>
		<g>
			<g>
				<path class="st12" d="M142.7,231.6c0,0.2-1.7,0.4-4.4,0.4c-2.7,0-6.5-0.1-10.7-0.3c-2.1-0.1-4.1-0.3-5.9-0.4
					c-1.8-0.1-3.5-0.3-4.8-0.3c-1.3-0.1-2.4-0.1-3.2,0c-0.7,0.1-1.2,0.1-1.2,0c0-0.1,0.3-0.3,1.1-0.5c0.8-0.2,1.9-0.4,3.3-0.4
					c1.4,0,3,0.1,4.8,0.1c1.8,0,3.8,0.2,5.9,0.3c4.2,0.3,7.9,0.5,10.7,0.7C141,231.3,142.7,231.5,142.7,231.6z"/>
			</g>
		</g>
	</g>
	<path class="st4" d="M19.2,129.9c0.8-5-2.2-7.4-3.6-1.3c-0.4-10.4-4.9-6-4.9-0.2c-0.4-5.4-4.7-11.6-5.6-0.5c-0.3-2.1-1-3.6-2.1-4.3
		c-1.1-0.8-2.8,0.4-2.9,5c-0.4,10.3,11.8,12.5,24.4,9.3c3.5,5.6,4.6,5.1,4.6,5.1s8.6-3.8,8.3-12.1C27.7,130.4,19.2,129.9,19.2,129.9
		z"/>
	<g>
		<g>
			<g>
				<path class="st10" d="M37.2,131.8c0.2,0,0.1,1.1-0.4,2.7c-0.5,1.6-1.4,3.9-3.2,5.9c-1.8,2-4,3.2-5.8,3.5c-0.9,0.1-1.7,0-2.1-0.3
					c-0.2-0.2-0.4-0.4-0.4-0.5c0-0.2,0-0.2,0.1-0.2c0.1,0,0.2,0.2,0.5,0.3c0.4,0.1,1,0,1.7-0.2c1.5-0.4,3.4-1.6,5-3.4
					c1.6-1.8,2.6-3.8,3.3-5.3C36.7,132.7,37,131.7,37.2,131.8z"/>
			</g>
		</g>
	</g>
	<path class="st5" d="M79.1,278c-1.7,2.9,3.5,17.7,3.5,17.7c-13.3,2.8-16.6,14.2,2.7,13.8c19.3-0.4,26.6-5.2,27.4-7.2
		c0.7-2,1.8-19.5,2-25.1C111,282.3,84.5,284.2,79.1,278z"/>
	<circle class="st13" cx="141.3" cy="196.1" r="1.6"/>
	<circle class="st13" cx="117.9" cy="196.1" r="1.6"/>
	<circle class="st13" cx="152.1" cy="194.4" r="1.6"/>
	<circle class="st13" cx="162.7" cy="191.6" r="1.6"/>
	<path class="st7" d="M117.8,195c-1.9-1-6.9-1.2-7,0.7c-0.1,1.9,6.7,2.8,7.3,1.4C118.9,195.3,117.8,195,117.8,195z"/>
	<g>
		<g>
			<g>
				<path class="st10" d="M180.7,96.7c0.1-0.1,0.3,0.1,0.8,0.3c0.5,0.2,1.2,0.2,2-0.2c0.4-0.2,0.8-0.6,1-1c0.3-0.4,0.5-1,0.4-1.4
					c-0.1-0.4-0.5-0.6-1.1-0.7c-0.1,0-0.3,0-0.5-0.1c-0.2,0-0.2,0-0.7,0c-0.8,0.1-1.7,0.2-2.5,0.3l0-0.1c0.3-0.5,0.7-1.1,1.1-1.6
					c0.2-0.3,0.4-0.5,0.7-0.7l0.4-0.3c0.1-0.1,0.2-0.1,0.3-0.2c0.7-0.5,1.4-0.7,2.1-0.9c1.4-0.4,2.7-0.5,3.8-0.4
					c1.1,0.1,1.9,0.3,2.5,0.6c0.5,0.3,0.8,0.6,0.7,0.6c-0.1,0.2-1.2-0.4-3.2-0.3c-1,0-2.2,0.2-3.4,0.6c-0.6,0.2-1.2,0.5-1.8,0.9
					l-0.2,0.1l0,0c0,0-0.1,0,0,0h0l0,0l0,0c-0.1,0,0.3,0,0.4,0c0.2,0,0.4,0,0.6,0.1c0.4,0.1,0.9,0.3,1.2,0.5
					c0.4,0.3,0.7,0.8,0.8,1.2c0.1,1-0.3,1.7-0.7,2.2c-0.4,0.5-1,0.9-1.5,1.2c-1.1,0.5-2.2,0.2-2.7-0.1
					C180.7,97.1,180.6,96.7,180.7,96.7z"/>
			</g>
		</g>
	</g>
	<ellipse class="st14" cx="155.6" cy="95" rx="9.4" ry="7.9"/>
	<path class="st14" d="M111.8,70c-1.5-1.6-3.4-2.6-5.2-3c-4,4.9-5.5,10-5.1,14.9c3.6,2.9,8.3,3.1,11.2,0.4
		C115.7,79.2,115.4,73.7,111.8,70z"/>
	<path class="st15" d="M119.3,94.7c4,6.1,12.2,7.7,21.2-1.2C131.2,89.9,122.5,91.2,119.3,94.7z"/>
	<g>
		<g>
			<g>
				<path class="st1" d="M206.7,42c-0.2-0.1,0.1-1.4,0.6-3.5c0.3-2.1,0.6-5.1,0.1-8.3c-1.2-6.4-3.7-11.3-3.3-11.5
					c0.2-0.1,0.9,1.1,1.9,3c0.9,2,2.1,4.9,2.7,8.2c0.5,3.4,0.1,6.6-0.4,8.7C207.5,40.8,206.8,42.1,206.7,42z"/>
			</g>
		</g>
	</g>
	<g>
		<g>
			<g>
				<path class="st1" d="M209.4,30.9c-0.2,0-0.2-0.7-0.2-1.8c0-1,0.2-2.5,0.2-4c-0.1-3-0.8-5.6-0.4-5.7c0.3-0.1,1.6,2.3,1.7,5.7
					c0,1.7-0.3,3.1-0.6,4.2C209.8,30.3,209.5,30.9,209.4,30.9z"/>
			</g>
		</g>
	</g>
	<g>
		<g>
			<g>
				<path class="st16" d="M96.5,299.3c0,0.2-0.8,0.5-2.2,0.8c-1.4,0.2-3.5,0.2-5.6-0.5c-2.1-0.7-3.8-1.8-4.9-2.7
					c-1.1-0.9-1.7-1.6-1.6-1.7c0.3-0.3,3,1.8,6.9,3.1c2,0.6,3.8,0.8,5.2,0.8C95.6,299.2,96.5,299.1,96.5,299.3z"/>
			</g>
		</g>
	</g>
	<g>
		<g>
			<g>
				<path class="st16" d="M184.2,292.3c0.1,0.1-0.3,0.8-1.1,1.6c-0.8,0.8-2.2,1.9-3.9,2.7c-1.7,0.8-3.4,1-4.6,1
					c-1.2-0.1-1.9-0.2-1.9-0.4c0-0.2,0.7-0.3,1.8-0.5c1.1-0.2,2.6-0.6,4.2-1.3C181.8,294,183.9,292,184.2,292.3z"/>
			</g>
		</g>
	</g>
	<g>
		<g>
			<g>
				<path class="st16" d="M112.2,277.2c0,0,0.2,0,0.4,0.2c0.1,0.1,0.2,0.2,0.3,0.4c0.1,0.2,0.1,0.5,0,0.8c-0.2,0.5-0.8,0.9-1.3,1.2
					c-0.6,0.3-1.3,0.6-2.1,0.9c-1.6,0.5-3.5,0.9-5.6,1.2c-2.1,0.3-4.5,0.6-7,0.7c-5,0.2-9.5-0.4-12.7-1.5c-1.6-0.5-2.8-1.2-3.5-1.9
					c-0.3-0.4-0.5-0.8-0.4-1.1c0-0.3,0.1-0.4,0.1-0.4c0.1,0,0,0.6,0.7,1.1c0.6,0.5,1.8,1,3.4,1.4c3.1,0.8,7.5,1.2,12.4,1
					c2.4-0.1,4.7-0.4,6.8-0.6c2.1-0.3,4-0.6,5.5-0.9c1.5-0.4,2.8-0.8,3.2-1.4c0.2-0.3,0.1-0.6-0.1-0.7
					C112.2,277.4,112.1,277.3,112.2,277.2z"/>
			</g>
		</g>
	</g>
	<g>
		<g>
			<g>
				<path class="st16" d="M181.8,272.3c0,0,0.2,0,0.4,0.1c0.1,0.1,0.3,0.2,0.4,0.3c0.1,0.2,0.2,0.5,0.1,0.8c-0.1,0.6-0.6,1-1.1,1.4
					c-0.5,0.4-1.2,0.8-1.9,1.2c-1.5,0.8-3.3,1.5-5.3,2.2c-2,0.7-4.3,1.4-6.8,1.8c-4.9,1-9.5,1.2-12.7,0.7c-1.6-0.2-3-0.7-3.7-1.3
					c-0.4-0.3-0.6-0.7-0.6-1c0-0.3,0-0.4,0.1-0.4c0.1,0,0.1,0.6,0.8,1c0.7,0.4,2,0.7,3.5,0.8c3.1,0.2,7.6-0.1,12.4-1
					c2.4-0.5,4.6-1.1,6.7-1.7c2-0.6,3.8-1.2,5.3-1.8c1.4-0.6,2.6-1.3,2.9-1.9c0.1-0.3,0-0.6-0.2-0.7
					C181.9,272.4,181.8,272.3,181.8,272.3z"/>
			</g>
		</g>
	</g>
	<g>
		<g>
			<g>
				<path class="st12" d="M115.4,235.5c-0.4,0-0.6-1-0.5-2.1c0.1-1.1,0.3-1.8,0.6-1.9c0.2,0,0.4,0.2,0.5,0.6c0.2,0.4,0.2,1,0.1,1.5
					C116.1,234.6,115.7,235.4,115.4,235.5z"/>
			</g>
		</g>
	</g>
	<g>
		<g>
			<g>
				<ellipse class="st12" cx="115.4" cy="241" rx="0.7" ry="1.7"/>
			</g>
		</g>
	</g>
	<g>
		<g>
			<g>
				<path class="st12" d="M115.7,249.8c-0.4,0-0.6-0.8-0.7-1.8c0-1,0.1-1.7,0.4-1.8c0.4-0.1,0.8,0.7,0.9,1.8
					C116.3,249,116,249.8,115.7,249.8z"/>
			</g>
		</g>
	</g>
	<circle class="st7" cx="138.4" cy="4.3" r="4.3"/>
	<circle class="st7" cx="160.2" cy="10.7" r="4.3"/>
	<circle class="st7" cx="182.9" cy="25" r="4.3"/>
	<circle class="st7" cx="200.2" cy="42.2" r="4.3"/>
</g>
<g id="designed_by_freepik">
</g>
</svg>
